  0
SECTION
  2
HEADER
  9
$ACADVER
  1
AC1015
  9
$ACADMAINTVER
 70
     6
  9
$DWGCODEPAGE
  3
ANSI_1252
  9
$INSBASE
 10
0.0
 20
0.0
 30
0.0
  9
$EXTMIN
 10
-1.821907
 20
-0.218454
 30
0.0
  9
$EXTMAX
 10
6.188049
 20
3.206412
 30
0.0
  9
$LIMMIN
 10
-1.110556
 20
-0.144459
  9
$LIMMAX
 10
4.539212
 20
2.737442
  9
$ORTHOMODE
 70
     0
  9
$REGENMODE
 70
     1
  9
$FILLMODE
 70
     1
  9
$QTEXTMODE
 70
     0
  9
$MIRRTEXT
 70
     1
  9
$LTSCALE
 40
1.0
  9
$ATTMODE
 70
     1
  9
$TEXTSIZE
 40
0.194
  9
$TRACEWID
 40
1.0
  9
$TEXTSTYLE
  7
STANDARD
  9
$CLAYER
  8
0
  9
$CELTYPE
  6
Continuous
  9
$CECOLOR
 62
     7
  9
$CELTSCALE
 40
1.0
  9
$DISPSILH
 70
     0
  9
$DIMSCALE
 40
1.0
  9
$DIMASZ
 40
0.1
  9
$DIMEXO
 40
0.0
  9
$DIMDLI
 40
1.0
  9
$DIMRND
 40
0.001
  9
$DIMDLE
 40
0.0
  9
$DIMEXE
 40
0.0
  9
$DIMTP
 40
0.0
  9
$DIMTM
 40
0.0
  9
$DIMTXT
 40
0.061972
  9
$DIMCEN
 40
0.09
  9
$DIMTSZ
 40
0.0
  9
$DIMTOL
 70
     0
  9
$DIMLIM
 70
     0
  9
$DIMTIH
 70
     1
  9
$DIMTOH
 70
     1
  9
$DIMSE1
 70
     0
  9
$DIMSE2
 70
     0
  9
$DIMTAD
 70
     0
  9
$DIMZIN
 70
     0
  9
$DIMBLK
  1
TC_DIMARROW_FILLED30
  9
$DIMASO
 70
     0
  9
$DIMSHO
 70
     1
  9
$DIMPOST
  1
<>in
  9
$DIMAPOST
  1
<>in
  9
$DIMALT
 70
     0
  9
$DIMALTD
 70
     3
  9
$DIMALTF
 40
1.0
  9
$DIMLFAC
 40
1.0
  9
$DIMTOFL
 70
     0
  9
$DIMTVP
 40
0.0
  9
$DIMTIX
 70
     0
  9
$DIMSOXD
 70
     0
  9
$DIMSAH
 70
     0
  9
$DIMBLK1
  1

  9
$DIMBLK2
  1

  9
$DIMSTYLE
  2
STANDARD
  9
$DIMCLRD
 70
     7
  9
$DIMCLRE
 70
     7
  9
$DIMCLRT
 70
     7
  9
$DIMTFAC
 40
1.0
  9
$DIMGAP
 40
0.01
  9
$DIMJUST
 70
     0
  9
$DIMSD1
 70
     0
  9
$DIMSD2
 70
     0
  9
$DIMTOLJ
 70
     1
  9
$DIMTZIN
 70
     0
  9
$DIMALTZ
 70
     0
  9
$DIMALTTZ
 70
     0
  9
$DIMUPT
 70
     0
  9
$DIMDEC
 70
     3
  9
$DIMTDEC
 70
     3
  9
$DIMALTU
 70
     2
  9
$DIMALTTD
 70
     3
  9
$DIMTXSTY
  7
STANDARD
  9
$DIMAUNIT
 70
     0
  9
$DIMADEC
 70
     3
  9
$DIMALTRND
 40
0.0
  9
$DIMAZIN
 70
     0
  9
$DIMDSEP
 70
     0
  9
$DIMATFIT
 70
     0
  9
$DIMFRAC
 70
     0
  9
$DIMLDRBLK
  1

  9
$DIMLUNIT
 70
     2
  9
$DIMLWD
 70
     0
  9
$DIMLWE
 70
     0
  9
$DIMTMOVE
 70
     0
  9
$LUNITS
 70
     2
  9
$LUPREC
 70
     3
  9
$SKETCHINC
 40
1.0
  9
$FILLETRAD
 40
1.0
  9
$AUNITS
 70
     0
  9
$AUPREC
 70
     2
  9
$MENU
  1
acad
  9
$ELEVATION
 40
0.0
  9
$PELEVATION
 40
0.0
  9
$THICKNESS
 40
0.0
  9
$LIMCHECK
 70
     0
  9
$CHAMFERA
 40
0.0
  9
$CHAMFERB
 40
0.0
  9
$CHAMFERC
 40
0.0
  9
$CHAMFERD
 40
0.0
  9
$SKPOLY
 70
     0
  9
$TDCREATE
 40
0.000000000
  9
$TDUCREATE
 40
0.000000000
  9
$TDUPDATE
 40
0.000000000
  9
$TDUUPDATE
 40
0.000000000
  9
$TDINDWG
 40
0.0000000000
  9
$TDUSRTIMER
 40
0.0000000000
  9
$USRTIMER
 70
     1
  9
$ANGBASE
 50
0.0
  9
$ANGDIR
 70
     0
  9
$PDMODE
 70
     0
  9
$PDSIZE
 40
0.0
  9
$PLINEWID
 40
0.0
  9
$SPLFRAME
 70
     0
  9
$SPLINETYPE
 70
     6
  9
$SPLINESEGS
 70
    20
  9
$HANDSEED
  5
20F
  9
$SURFTAB1
 70
     6
  9
$SURFTAB2
 70
     6
  9
$SURFTYPE
 70
     6
  9
$SURFU
 70
     6
  9
$SURFV
 70
     6
  9
$UCSBASE
  2

  9
$UCSNAME
  2

  9
$UCSORG
 10
0.0
 20
0.0
 30
0.0
  9
$UCSXDIR
 10
1.0
 20
0.0
 30
0.0
  9
$UCSYDIR
 10
0.0
 20
1.0
 30
0.0
  9
$UCSORTHOREF
  2

  9
$UCSORTHOVIEW
 70
     0
  9
$UCSORGTOP
 10
0.0
 20
0.0
 30
0.0
  9
$UCSORGBOTTOM
 10
0.0
 20
0.0
 30
0.0
  9
$UCSORGLEFT
 10
0.0
 20
0.0
 30
0.0
  9
$UCSORGRIGHT
 10
0.0
 20
0.0
 30
0.0
  9
$UCSORGFRONT
 10
0.0
 20
0.0
 30
0.0
  9
$UCSORGBACK
 10
0.0
 20
0.0
 30
0.0
  9
$PUCSBASE
  2

  9
$PUCSNAME
  2

  9
$PUCSORG
 10
0.0
 20
0.0
 30
0.0
  9
$PUCSXDIR
 10
1.0
 20
0.0
 30
0.0
  9
$PUCSYDIR
 10
0.0
 20
1.0
 30
0.0
  9
$PUCSORTHOREF
  2

  9
$PUCSORTHOVIEW
 70
     0
  9
$PUCSORGTOP
 10
0.0
 20
0.0
 30
0.0
  9
$PUCSORGBOTTOM
 10
0.0
 20
0.0
 30
0.0
  9
$PUCSORGLEFT
 10
0.0
 20
0.0
 30
0.0
  9
$PUCSORGRIGHT
 10
0.0
 20
0.0
 30
0.0
  9
$PUCSORGFRONT
 10
0.0
 20
0.0
 30
0.0
  9
$PUCSORGBACK
 10
0.0
 20
0.0
 30
0.0
  9
$USERI1
 70
     0
  9
$USERI2
 70
     0
  9
$USERI3
 70
     0
  9
$USERI4
 70
     0
  9
$USERI5
 70
     0
  9
$USERR1
 40
0.0
  9
$USERR2
 40
0.0
  9
$USERR3
 40
0.0
  9
$USERR4
 40
0.0
  9
$USERR5
 40
0.0
  9
$WORLDVIEW
 70
     1
  9
$SHADEDGE
 70
     3
  9
$SHADEDIF
 70
    70
  9
$TILEMODE
 70
     1
  9
$MAXACTVP
 70
    16
  9
$PINSBASE
 10
0.0
 20
0.0
 30
0.0
  9
$PLIMCHECK
 70
     0
  9
$PEXTMIN
 10
0.0
 20
0.0
 30
0.0
  9
$PEXTMAX
 10
7543.8
 20
5334.0
 30
0.0
  9
$PLIMMIN
 10
0.0
 20
0.0
  9
$PLIMMAX
 10
7543.8
 20
5334.0
  9
$UNITMODE
 70
     0
  9
$VISRETAIN
 70
     0
  9
$PLINEGEN
 70
     1
  9
$PSLTSCALE
 70
     1
  9
$TREEDEPTH
 70
  3020
  9
$CMLSTYLE
  2
STANDARD
  9
$CMLJUST
 70
     0
  9
$CMLSCALE
 40
1.0
  9
$PROXYGRAPHICS
 70
     0
  9
$MEASUREMENT
 70
     0
  9
$CELWEIGHT
370
     0
  9
$ENDCAPS
280
     0
  9
$JOINSTYLE
280
     0
  9
$LWDISPLAY
290
     0
  9
$INSUNITS
 70
     0
  9
$HYPERLINKBASE
  1

  9
$STYLESHEET
  1

  9
$XEDIT
290
     1
  9
$CEPSNTYPE
380
     0
  9
$PSTYLEMODE
290
     1
  9
$FINGERPRINTGUID
  2

  9
$VERSIONGUID
  2

  9
$EXTNAMES
290
     1
  9
$PSVPSCALE
 40
0.0
  0
ENDSEC
  0
SECTION
  2
CLASSES
  0
CLASS
  1
LWPOLYLINE
  2
AcDbPolyline
  3
AutoCAD 2000
 90
        0
280
     0
281
     1
  0
CLASS
  1
IMAGE
  2
AcDbRasterImage
  3
ISM
 90
    32895
280
     0
281
     1
  0
CLASS
  1
OLE2FRAME
  2
AcDbOle2Frame
  3
AutoCAD 2000
 90
    32768
280
     0
281
     1
  0
CLASS
  1
HATCH
  2
AcDbHatch
  3
AutoCAD 2000
 90
        0
280
     0
281
     1
  0
CLASS
  1
DICTIONARYVAR
  2
AcDbDictionaryVar
  3
AutoCAD 2000
 90
    32768
280
     0
281
     0
  0
CLASS
  1
RASTERVARIABLES
  2
AcDbRasterVariables
  3
ISM
 90
    32768
280
     0
281
     0
  0
CLASS
  1
IMAGEDEF
  2
AcDbRasterImageDef
  3
ISM
 90
    32768
280
     0
281
     0
  0
CLASS
  1
IMAGEDEF_REACTOR
  2
AcDbRasterImageDefReactor
  3
ISM
 90
    32769
280
     0
281
     0
  0
CLASS
  1
IDBUFFER
  2
AcDbIdBuffer
  3
AutoCAD 2000
 90
    32768
280
     0
281
     0
  0
CLASS
  1
SPATIAL_FILTER
  2
AcDbSpatialFilter
  3
AutoCAD 2000
 90
    32768
280
     0
281
     0
  0
CLASS
  1
XRECORD
  2
AcDbXrecord
  3
AutoCAD 2000
 90
    32768
280
     0
281
     0
  0
CLASS
  1
SORTENTSTABLE
  2
AcDbSortentsTable
  3
AutoCAD 2000
 90
    32768
280
     0
281
     0
  0
CLASS
  1
LAYER_INDEX
  2
AcDbLayerIndex
  3
AutoCAD 2000
 90
    32768
280
     0
281
     0
  0
CLASS
  1
SPATIAL_INDEX
  2
AcDbSpatialIndex
  3
AutoCAD 2000
 90
    32768
280
     0
281
     0
  0
CLASS
  1
OBJECT_PTR
  2
CAseDLPNTableRecord
  3
"ASE-LPNTableRecord"
 90
    32769
280
     0
281
     0
  0
CLASS
  1
LAYOUT
  2
AcDbLayout
  3
AutoCAD 2000
 90
        0
280
     0
281
     0
  0
CLASS
  1
PLOTSETTINGS
  2
AcDbPlotSettings
  3
AutoCAD 2000
 90
    32768
280
     0
281
     0
  0
CLASS
  1
ACDBDICTIONARYWDFLT
  2
AcDbDictionaryWithDefault
  3
AutoCAD 2000
 90
        0
280
     0
281
     0
  0
CLASS
  1
ACDBPLACEHOLDER
  2
AcDbPlaceHolder
  3
AutoCAD 2000
 90
        0
280
     0
281
     0
  0
ENDSEC
  0
SECTION
  2
TABLES
  0
TABLE
  2
VPORT
  5
7
100
AcDbSymbolTable
 70
     1
  0
VPORT
  5
15
100
AcDbSymbolTableRecord
100
AcDbViewportTableRecord
  2
*ACTIVE
 70
     0
 10
0.0
 20
0.0
 11
1.0
 21
1.0
 12
0.0
 22
0.0
 13
0.0
 23
0.0
 14
0.5
 24
0.5
 15
0.5
 25
0.5
 16
0.0
 26
0.0
 36
1.0
 17
2.280313
 27
-0.258194
 37
3.0
 40
6.421591
 41
1.794808
 42
50.0
 43
0.0
 44
0.0
 50
0.0
 51
0.0
 71
     0
 72
   100
 73
     1
 74
     1
 75
     0
 76
     0
 77
     0
 78
     0
281
     0
 65
     0
110
0.0
120
0.0
130
0.0
111
1.0
121
0.0
131
0.0
112
0.0
122
1.0
132
0.0
345
0
346
0
 79
     0
146
0.0
  0
ENDTAB
  0
TABLE
  2
LTYPE
  5
4
100
AcDbSymbolTable
 70
    15
  0
LTYPE
  5
11
100
AcDbSymbolTableRecord
100
AcDbLinetypeTableRecord
  2
ByBlock
 70
    64
  3

 72
    65
 73
     0
 40
0.0
  0
LTYPE
  5
12
100
AcDbSymbolTableRecord
100
AcDbLinetypeTableRecord
  2
ByLayer
 70
    64
  3

 72
    65
 73
     0
 40
0.0
  0
LTYPE
  5
13
100
AcDbSymbolTableRecord
100
AcDbLinetypeTableRecord
  2
Continuous
 70
    64
  3
Solid line
 72
    65
 73
     0
 40
0.0
  0
LTYPE
  5
24
100
AcDbSymbolTableRecord
100
AcDbLinetypeTableRecord
  2
BORDER
 70
     0
  3
BORDER
 72
    65
 73
     6
 40
1.75
 49
0.5
 74
     0
 49
-0.25
 74
     0
 49
0.5
 74
     0
 49
-0.25
 74
     0
 49
0.0
 74
     0
 49
-0.25
 74
     0
  0
LTYPE
  5
25
100
AcDbSymbolTableRecord
100
AcDbLinetypeTableRecord
  2
CENTER
 70
     0
  3
CENTER
 72
    65
 73
     4
 40
2.0
 49
1.25
 74
     0
 49
-0.25
 74
     0
 49
0.25
 74
     0
 49
-0.25
 74
     0
  0
LTYPE
  5
26
100
AcDbSymbolTableRecord
100
AcDbLinetypeTableRecord
  2
DASHDOT
 70
     0
  3
DASHDOT
 72
    65
 73
     4
 40
1.0
 49
0.5
 74
     0
 49
-0.25
 74
     0
 49
0.0
 74
     0
 49
-0.25
 74
     0
  0
LTYPE
  5
27
100
AcDbSymbolTableRecord
100
AcDbLinetypeTableRecord
  2
DASHED
 70
     0
  3
DASHED
 72
    65
 73
     2
 40
0.75
 49
0.5
 74
     0
 49
-0.25
 74
     0
  0
LTYPE
  5
28
100
AcDbSymbolTableRecord
100
AcDbLinetypeTableRecord
  2
DIVIDE
 70
     0
  3
DIVIDE
 72
    65
 73
     6
 40
1.25
 49
0.5
 74
     0
 49
-0.25
 74
     0
 49
0.0
 74
     0
 49
-0.25
 74
     0
 49
0.0
 74
     0
 49
-0.25
 74
     0
  0
LTYPE
  5
29
100
AcDbSymbolTableRecord
100
AcDbLinetypeTableRecord
  2
DOT
 70
     0
  3
DOT
 72
    65
 73
     2
 40
0.25
 49
0.0
 74
     0
 49
-0.25
 74
     0
  0
LTYPE
  5
2A
100
AcDbSymbolTableRecord
100
AcDbLinetypeTableRecord
  2
HIDDEN
 70
     0
  3
HIDDEN
 72
    65
 73
     2
 40
0.375
 49
0.25
 74
     0
 49
-0.125
 74
     0
  0
LTYPE
  5
2B
100
AcDbSymbolTableRecord
100
AcDbLinetypeTableRecord
  2
PHANTOM
 70
     0
  3
PHANTOM
 72
    65
 73
     6
 40
2.5
 49
1.25
 74
     0
 49
-0.25
 74
     0
 49
0.25
 74
     0
 49
-0.25
 74
     0
 49
0.25
 74
     0
 49
-0.25
 74
     0
  0
LTYPE
  5
2C
100
AcDbSymbolTableRecord
100
AcDbLinetypeTableRecord
  2
$INVISIBLE
 70
     0
  3
$INVISIBLE
 72
    65
 73
     2
 40
200.0
 49
-100.0
 74
     0
 49
-100.0
 74
     0
  0
LTYPE
  5
2D
100
AcDbSymbolTableRecord
100
AcDbLinetypeTableRecord
  2
$AUXILIARY
 70
     0
  3
$AUXILIARY
 72
    65
 73
     2
 40
0.1
 49
0.05
 74
     0
 49
-0.05
 74
     0
  0
LTYPE
  5
2E
100
AcDbSymbolTableRecord
100
AcDbLinetypeTableRecord
  2
$CONSTRUCTION
 70
     0
  3
$CONSTRUCTION
 72
    65
 73
     4
 40
0.3
 49
0.2
 74
     0
 49
-0.05
 74
     0
 49
0.0
 74
     0
 49
-0.05
 74
     0
  0
LTYPE
  5
2F
100
AcDbSymbolTableRecord
100
AcDbLinetypeTableRecord
  2
$SNAPEXT
 70
     0
  3
$SNAPEXT
 72
    65
 73
     2
 40
0.04
 49
0.02
 74
     0
 49
-0.02
 74
     0
  0
ENDTAB
  0
TABLE
  2
LAYER
  5
2
100
AcDbSymbolTable
 70
     8
  0
LAYER
  5
14
100
AcDbSymbolTableRecord
100
AcDbLayerTableRecord
  2
0
 70
     0
 62
     7
  6
Continuous
290
     1
370
     0
390
0
1001
TCAD
1000
TCW_LAYER_ORDER
1002
{
1071
        0
1002
}
  0
LAYER
  5
30
100
AcDbSymbolTableRecord
100
AcDbLayerTableRecord
  2
outline
 70
     0
 62
     1
  6
Continuous
290
     1
370
     0
390
0
1001
TCAD
1000
TCW_LAYER_ORDER
1002
{
1071
        0
1002
}
  0
LAYER
  5
31
100
AcDbSymbolTableRecord
100
AcDbLayerTableRecord
  2
raused
 70
     0
 62
   164
  6
Continuous
290
     1
370
     0
390
0
1001
TCAD
1000
TCW_LAYER_ORDER
1002
{
1071
        0
1002
}
  0
LAYER
  5
32
100
AcDbSymbolTableRecord
100
AcDbLayerTableRecord
  2
hole
 70
     0
 62
     3
  6
Continuous
290
     1
370
     0
390
0
1001
TCAD
1000
TCW_LAYER_ORDER
1002
{
1071
        0
1002
}
  0
LAYER
  5
33
100
AcDbSymbolTableRecord
100
AcDbLayerTableRecord
  2
$CONSTRUCTION
 70
     0
 62
     9
  6
$CONSTRUCTION
290
     1
370
     0
390
0
1001
TCAD
1000
TCW_LAYER_ORDER
1002
{
1071
        0
1002
}
  0
LAYER
  5
34
100
AcDbSymbolTableRecord
100
AcDbLayerTableRecord
  2
Backside
 70
     0
 62
    30
  6
Continuous
290
     1
370
     0
390
0
1001
TCAD
1000
TCW_LAYER_ORDER
1002
{
1071
        0
1002
}
  0
LAYER
  5
35
100
AcDbSymbolTableRecord
100
AcDbLayerTableRecord
  2
backside2
 70
     0
 62
    21
  6
Continuous
290
     1
370
     0
390
0
1001
TCAD
1000
TCW_LAYER_ORDER
1002
{
1071
        0
1002
}
  0
LAYER
  5
36
100
AcDbSymbolTableRecord
100
AcDbLayerTableRecord
  2
backside3
 70
     0
 62
    45
  6
Continuous
290
     1
370
     0
390
0
1001
TCAD
1000
TCW_LAYER_ORDER
1002
{
1071
        0
1002
}
  0
ENDTAB
  0
TABLE
  2
STYLE
  5
3
100
AcDbSymbolTable
 70
     1
  0
STYLE
  5
17
100
AcDbSymbolTableRecord
100
AcDbTextStyleTableRecord
  2
STANDARD
 70
     0
 40
0.0
 41
1.0
 50
0.0
 71
     0
 42
3.222614
  3
ARIAL.TTF
  4

1001
ACAD
1000
Arial
1071
       34
  0
ENDTAB
  0
TABLE
  2
VIEW
  5
5
100
AcDbSymbolTable
 70
     1
  0
VIEW
  5
37
100
AcDbSymbolTableRecord
100
AcDbViewTableRecord
  2
View_0
 70
     0
 40
8.267717
 10
5.846457
 20
4.133858
 41
11.692913
 11
0.0
 21
0.0
 31
1.0
 12
0.0
 22
0.0
 32
0.0
 42
50.0
 43
0.0
 44
0.0
 50
0.0
 71
     0
281
     0
 72
     0
110
0.0
120
0.0
130
0.0
111
1.0
121
0.0
131
0.0
112
0.0
122
1.0
132
0.0
  0
ENDTAB
  0
TABLE
  2
UCS
  5
6
100
AcDbSymbolTable
 70
     0
  0
ENDTAB
  0
TABLE
  2
APPID
  5
8
100
AcDbSymbolTable
 70
     2
  0
APPID
  5
16
100
AcDbSymbolTableRecord
100
AcDbRegAppTableRecord
  2
ACAD
 70
     0
  0
APPID
  5
23
100
AcDbSymbolTableRecord
100
AcDbRegAppTableRecord
  2
TCAD
 70
     0
  0
ENDTAB
  0
TABLE
  2
DIMSTYLE
  5
9
100
AcDbSymbolTable
 70
     1
100
AcDbDimStyleTable
 71
     0
  0
DIMSTYLE
105
18
100
AcDbSymbolTableRecord
100
AcDbDimStyleTableRecord
  2
STANDARD
 70
     0
  3
<>in
  4
<>in
 40
1.0
 41
0.1
 42
0.0
 43
1.0
 44
0.0
 45
0.001
 46
0.0
 47
0.0
 48
0.0
 71
     0
 72
     0
 73
     1
 74
     1
 75
     0
 76
     0
 77
     0
 78
     0
 79
     0
140
0.061972
141
0.09
142
0.0
143
1.0
144
1.0
145
0.0
146
1.0
147
0.01
148
0.01
170
     0
171
     3
172
     0
173
     0
174
     0
175
     0
176
     7
177
     7
178
     7
179
     3
271
     3
272
     3
273
     2
274
     3
275
     0
276
     0
277
     2
278
    46
279
     0
280
     0
281
     0
282
     0
283
     1
284
     0
285
     0
286
     0
288
     0
340
17
341
0
342
38
343
0
344
0
371
    -2
372
    -2
  0
ENDTAB
  0
TABLE
  2
BLOCK_RECORD
  5
1
100
AcDbSymbolTable
 70
    27
  0
BLOCK_RECORD
  5
A
100
AcDbSymbolTableRecord
100
AcDbBlockTableRecord
  2
*MODEL_SPACE
340
20D
  0
BLOCK_RECORD
  5
B
100
AcDbSymbolTableRecord
100
AcDbBlockTableRecord
  2
*PAPER_SPACE
340
20E
  0
BLOCK_RECORD
  5
38
100
AcDbSymbolTableRecord
100
AcDbBlockTableRecord
  2
TC_DIMARROW_FILLED30
340
0
  0
BLOCK_RECORD
  5
3C
100
AcDbSymbolTableRecord
100
AcDbBlockTableRecord
  2
Block_0
340
0
  0
BLOCK_RECORD
  5
4C
100
AcDbSymbolTableRecord
100
AcDbBlockTableRecord
  2
Block_1
340
0
  0
BLOCK_RECORD
  5
87
100
AcDbSymbolTableRecord
100
AcDbBlockTableRecord
  2
*D3
340
0
  0
BLOCK_RECORD
  5
97
100
AcDbSymbolTableRecord
100
AcDbBlockTableRecord
  2
*D4
340
0
  0
BLOCK_RECORD
  5
A9
100
AcDbSymbolTableRecord
100
AcDbBlockTableRecord
  2
*D5
340
0
  0
BLOCK_RECORD
  5
B9
100
AcDbSymbolTableRecord
100
AcDbBlockTableRecord
  2
*D6
340
0
  0
BLOCK_RECORD
  5
C9
100
AcDbSymbolTableRecord
100
AcDbBlockTableRecord
  2
*D7
340
0
  0
BLOCK_RECORD
  5
DB
100
AcDbSymbolTableRecord
100
AcDbBlockTableRecord
  2
*D8
340
0
  0
BLOCK_RECORD
  5
EB
100
AcDbSymbolTableRecord
100
AcDbBlockTableRecord
  2
*D9
340
0
  0
BLOCK_RECORD
  5
109
100
AcDbSymbolTableRecord
100
AcDbBlockTableRecord
  2
*D10
340
0
  0
BLOCK_RECORD
  5
119
100
AcDbSymbolTableRecord
100
AcDbBlockTableRecord
  2
*D11
340
0
  0
BLOCK_RECORD
  5
129
100
AcDbSymbolTableRecord
100
AcDbBlockTableRecord
  2
*D12
340
0
  0
BLOCK_RECORD
  5
136
100
AcDbSymbolTableRecord
100
AcDbBlockTableRecord
  2
*D13
340
0
  0
BLOCK_RECORD
  5
146
100
AcDbSymbolTableRecord
100
AcDbBlockTableRecord
  2
*D14
340
0
  0
BLOCK_RECORD
  5
158
100
AcDbSymbolTableRecord
100
AcDbBlockTableRecord
  2
*D15
340
0
  0
BLOCK_RECORD
  5
168
100
AcDbSymbolTableRecord
100
AcDbBlockTableRecord
  2
*D16
340
0
  0
BLOCK_RECORD
  5
178
100
AcDbSymbolTableRecord
100
AcDbBlockTableRecord
  2
*D17
340
0
  0
BLOCK_RECORD
  5
189
100
AcDbSymbolTableRecord
100
AcDbBlockTableRecord
  2
*D18
340
0
  0
BLOCK_RECORD
  5
19B
100
AcDbSymbolTableRecord
100
AcDbBlockTableRecord
  2
*D19
340
0
  0
BLOCK_RECORD
  5
1A5
100
AcDbSymbolTableRecord
100
AcDbBlockTableRecord
  2
*D20
340
0
  0
BLOCK_RECORD
  5
1B2
100
AcDbSymbolTableRecord
100
AcDbBlockTableRecord
  2
*D21
340
0
  0
BLOCK_RECORD
  5
1C2
100
AcDbSymbolTableRecord
100
AcDbBlockTableRecord
  2
*D22
340
0
  0
BLOCK_RECORD
  5
1D2
100
AcDbSymbolTableRecord
100
AcDbBlockTableRecord
  2
*D23
340
0
  0
BLOCK_RECORD
  5
1E2
100
AcDbSymbolTableRecord
100
AcDbBlockTableRecord
  2
*D24
340
0
  0
BLOCK_RECORD
  5
1F3
100
AcDbSymbolTableRecord
100
AcDbBlockTableRecord
  2
*D25
340
0
  0
BLOCK_RECORD
  5
1FF
100
AcDbSymbolTableRecord
100
AcDbBlockTableRecord
  2
*D26
340
0
  0
ENDTAB
  0
ENDSEC
  0
SECTION
  2
BLOCKS
  0
BLOCK
  5
D
100
AcDbEntity
  8
0
100
AcDbBlockBegin
  2
*MODEL_SPACE
 70
     0
 10
0.0
 20
0.0
 30
0.0
  3
*MODEL_SPACE
  1

  0
ENDBLK
  5
E
100
AcDbEntity
  8
0
100
AcDbBlockEnd
  0
BLOCK
  5
F
100
AcDbEntity
 67
     1
  8
0
100
AcDbBlockBegin
  2
*PAPER_SPACE
 70
     0
 10
0.0
 20
0.0
 30
0.0
  3
*PAPER_SPACE
  1

  0
ENDBLK
  5
10
100
AcDbEntity
 67
     1
  8
0
100
AcDbBlockEnd
  0
BLOCK
  5
39
100
AcDbEntity
  8
0
100
AcDbBlockBegin
  2
TC_DIMARROW_FILLED30
 70
     0
 10
0.0
 20
0.0
 30
0.0
  3
TC_DIMARROW_FILLED30
  1

  0
SOLID
  5
3A
100
AcDbEntity
  8
0
  6
ByBlock
 62
     0
100
AcDbTrace
 10
0.0
 20
0.0
 30
0.0
 11
-1.0
 21
0.267949
 31
0.0
 12
-1.0
 22
-0.267949
 32
0.0
 13
-1.0
 23
-0.267949
 33
0.0
  0
ENDBLK
  5
3B
100
AcDbEntity
  8
0
100
AcDbBlockEnd
  0
BLOCK
  5
3D
100
AcDbEntity
  8
0
100
AcDbBlockBegin
  2
Block_0
 70
     0
 10
-2.354593
 20
-1.375672
 30
0.0
  3
Block_0
  1

1001
TCAD
1000
TCW_REFPOINT
1002
{
1010
-2.354593
1020
-1.375672
1030
0.0
1002
}
  0
CIRCLE
  5
3E
100
AcDbEntity
  8
raused
370
     0
  6
Continuous
 62
     7
100
AcDbCircle
 10
-3.063254
 20
-0.794963
 30
0.0
 40
0.03937
  0
CIRCLE
  5
3F
100
AcDbEntity
  8
raused
370
     0
  6
Continuous
 62
     7
100
AcDbCircle
 10
-1.645932
 20
-0.794963
 30
0.0
 40
0.03937
  0
LWPOLYLINE
  5
40
100
AcDbEntity
  8
0
  6
Continuous
 62
     7
100
AcDbPolyline
 90
        4
 70
     1
 10
-3.098688
 20
-0.942601
 10
-1.610499
 20
-0.942601
 10
-1.610499
 20
-1.848113
 10
-3.098688
 20
-1.848113
  0
LWPOLYLINE
  5
41
100
AcDbEntity
  8
0
  6
Continuous
 62
     7
100
AcDbPolyline
 90
        4
 70
     1
 10
-2.945144
 20
-1.119766
 10
-1.764042
 20
-1.119766
 10
-1.764042
 20
-1.670947
 10
-2.945144
 20
-1.670947
  0
CIRCLE
  5
42
100
AcDbEntity
  8
raused
370
     0
  6
Continuous
 62
     7
100
AcDbCircle
 10
-3.063254
 20
-1.99575
 30
0.0
 40
0.035433
  0
CIRCLE
  5
43
100
AcDbEntity
  8
raused
370
     0
  6
Continuous
 62
     7
100
AcDbCircle
 10
-1.645932
 20
-1.99575
 30
0.0
 40
0.035433
  0
ARC
  5
44
100
AcDbEntity
  8
raused
370
     0
  6
Continuous
 62
     7
100
AcDbCircle
 10
-3.063254
 20
-1.99575
 30
0.0
 40
0.07874
100
AcDbArc
 50
180.0
 51
360.0
  0
ARC
  5
45
100
AcDbEntity
  8
raused
370
     0
  6
Continuous
 62
     7
100
AcDbCircle
 10
-1.645932
 20
-1.99575
 30
0.0
 40
0.07874
100
AcDbArc
 50
180.0
 51
360.0
  0
LINE
  5
46
100
AcDbEntity
  8
0
370
     0
  6
Continuous
 62
     7
100
AcDbLine
 10
-3.141995
 20
-0.676853
 30
0.0
 11
-1.567191
 21
-0.676853
 31
0.0
  0
LINE
  5
47
100
AcDbEntity
  8
0
370
     0
  6
Continuous
 62
     7
100
AcDbLine
 10
-3.141995
 20
-1.996503
 30
0.0
 11
-3.141995
 21
-0.676853
 31
0.0
  0
LINE
  5
48
100
AcDbEntity
  8
0
370
     0
  6
Continuous
 62
     7
100
AcDbLine
 10
-2.984514
 20
-1.99575
 30
0.0
 11
-2.984514
 21
-1.848111
 31
0.0
  0
LINE
  5
49
100
AcDbEntity
  8
0
370
     0
  6
Continuous
 62
     7
100
AcDbLine
 10
-1.724672
 20
-1.99575
 30
0.0
 11
-1.724672
 21
-1.848175
 31
0.0
  0
LINE
  5
4A
100
AcDbEntity
  8
0
370
     0
  6
Continuous
 62
     7
100
AcDbLine
 10
-1.567191
 20
-0.676853
 30
0.0
 11
-1.567191
 21
-1.99575
 31
0.0
  0
ENDBLK
  5
4B
100
AcDbEntity
  8
0
100
AcDbBlockEnd
  0
BLOCK
  5
4D
100
AcDbEntity
  8
0
100
AcDbBlockBegin
  2
Block_1
 70
     0
 10
-2.354593
 20
-1.375672
 30
0.0
  3
Block_1
  1

1001
TCAD
1000
TCW_REFPOINT
1002
{
1010
-2.354593
1020
-1.375672
1030
0.0
1002
}
  0
CIRCLE
  5
4E
100
AcDbEntity
  8
0
370
     0
  6
Continuous
 62
     7
100
AcDbCircle
 10
-3.063254
 20
-0.794963
 30
0.0
 40
0.03937
  0
CIRCLE
  5
4F
100
AcDbEntity
  8
0
370
     0
  6
Continuous
 62
     7
100
AcDbCircle
 10
-1.645932
 20
-0.794963
 30
0.0
 40
0.03937
  0
LWPOLYLINE
  5
50
100
AcDbEntity
  8
0
  6
Continuous
 62
     7
100
AcDbPolyline
 90
        4
 70
     1
 10
-3.098688
 20
-0.942601
 10
-1.610499
 20
-0.942601
 10
-1.610499
 20
-1.848113
 10
-3.098688
 20
-1.848113
  0
LWPOLYLINE
  5
51
100
AcDbEntity
  8
0
  6
Continuous
 62
     7
100
AcDbPolyline
 90
        4
 70
     1
 10
-2.945144
 20
-1.119766
 10
-1.764042
 20
-1.119766
 10
-1.764042
 20
-1.670947
 10
-2.945144
 20
-1.670947
  0
CIRCLE
  5
52
100
AcDbEntity
  8
0
370
     0
  6
Continuous
 62
     7
100
AcDbCircle
 10
-3.063254
 20
-1.99575
 30
0.0
 40
0.035433
  0
CIRCLE
  5
53
100
AcDbEntity
  8
0
370
     0
  6
Continuous
 62
     7
100
AcDbCircle
 10
-1.645932
 20
-1.99575
 30
0.0
 40
0.035433
  0
ARC
  5
54
100
AcDbEntity
  8
0
370
     0
  6
Continuous
 62
     7
100
AcDbCircle
 10
-3.063254
 20
-1.99575
 30
0.0
 40
0.07874
100
AcDbArc
 50
180.0
 51
360.0
  0
ARC
  5
55
100
AcDbEntity
  8
0
370
     0
  6
Continuous
 62
     7
100
AcDbCircle
 10
-1.645932
 20
-1.99575
 30
0.0
 40
0.07874
100
AcDbArc
 50
180.0
 51
360.0
  0
LINE
  5
56
100
AcDbEntity
  8
0
370
     0
  6
Continuous
 62
     7
100
AcDbLine
 10
-3.141995
 20
-0.676853
 30
0.0
 11
-1.567191
 21
-0.676853
 31
0.0
  0
LINE
  5
57
100
AcDbEntity
  8
0
370
     0
  6
Continuous
 62
     7
100
AcDbLine
 10
-3.141995
 20
-1.996503
 30
0.0
 11
-3.141995
 21
-0.676853
 31
0.0
  0
LINE
  5
58
100
AcDbEntity
  8
0
370
     0
  6
Continuous
 62
     7
100
AcDbLine
 10
-2.984514
 20
-1.99575
 30
0.0
 11
-2.984514
 21
-1.848111
 31
0.0
  0
LINE
  5
59
100
AcDbEntity
  8
0
370
     0
  6
Continuous
 62
     7
100
AcDbLine
 10
-1.724672
 20
-1.99575
 30
0.0
 11
-1.724672
 21
-1.848175
 31
0.0
  0
LINE
  5
5A
100
AcDbEntity
  8
0
370
     0
  6
Continuous
 62
     7
100
AcDbLine
 10
-1.567191
 20
-0.676853
 30
0.0
 11
-1.567191
 21
-1.99575
 31
0.0
  0
ENDBLK
  5
5B
100
AcDbEntity
  8
0
100
AcDbBlockEnd
  0
BLOCK
  5
88
100
AcDbEntity
  8
0
100
AcDbBlockBegin
  2
*D3
 70
     1
 10
0.0
 20
0.0
 30
0.0
  3
*D3
  1

  0
LINE
  5
89
100
AcDbEntity
  8
0
  6
Continuous
 62
   252
100
AcDbLine
 10
1.507663
 20
0.978883
 30
0.0
 11
3.121925
 21
0.978883
 31
0.0
1001
ACAD
1000
TCW40_DEV_WIDTH
1002
{
1040
-3.0
1002
}
  0
LINE
  5
8A
100
AcDbEntity
  8
0
  6
Continuous
 62
   252
100
AcDbLine
 10
1.503608
 20
0.339135
 30
0.0
 11
3.121925
 21
0.339135
 31
0.0
1001
ACAD
1000
TCW40_DEV_WIDTH
1002
{
1040
-3.0
1002
}
  0
LWPOLYLINE
  5
8B
100
AcDbEntity
  8
0
  6
Continuous
 62
   252
100
AcDbPolyline
 90
        4
 70
     0
 10
3.121925
 20
0.878883
 10
3.121925
 20
0.878883
 10
3.121925
 20
0.878883
 10
3.121925
 20
0.734009
  0
LWPOLYLINE
  5
8C
100
AcDbEntity
  8
0
  6
Continuous
 62
   252
100
AcDbPolyline
 90
        4
 70
     0
 10
3.121925
 20
0.439135
 10
3.121925
 20
0.439135
 10
3.121925
 20
0.439135
 10
3.121925
 20
0.584009
  0
LWPOLYLINE
  5
8F
100
AcDbEntity
  8
0
  6
Continuous
 62
   252
100
AcDbPolyline
 90
        4
 70
     0
 10
3.121925
 20
0.978883
 40
0.0
 41
0.0
 10
3.105258
 20
0.878883
 40
0.0
 41
0.0
 10
3.138592
 20
0.878883
 40
0.0
 41
0.0
 10
3.121925
 20
0.978883
 40
0.0
 41
0.0
  0
HATCH
  5
8D
100
AcDbEntity
  8
0
  6
Continuous
 62
   252
100
AcDbHatch
 10
0.0
 20
0.0
 30
0.0
210
0.0
220
0.0
230
1.0
  2
SOLID
 70
     1
 71
     1
 91
        1
 92
        3
 72
     0
 73
     1
 93
        3
 10
3.1219250000000001
 20
0.978883
 10
3.1052583333333335
 20
0.878883
 10
3.1385916666666667
 20
0.878883
 97
        1
330
8E
 75
     0
 76
     0
 98
        0
  0
LWPOLYLINE
  5
92
100
AcDbEntity
  8
0
  6
Continuous
 62
   252
100
AcDbPolyline
 90
        4
 70
     0
 10
3.121925
 20
0.339135
 40
0.0
 41
0.0
 10
3.138592
 20
0.439135
 40
0.0
 41
0.0
 10
3.105258
 20
0.439135
 40
0.0
 41
0.0
 10
3.121925
 20
0.339135
 40
0.0
 41
0.0
  0
HATCH
  5
90
100
AcDbEntity
  8
0
  6
Continuous
 62
   252
100
AcDbHatch
 10
0.0
 20
0.0
 30
0.0
210
0.0
220
0.0
230
1.0
  2
SOLID
 70
     1
 71
     1
 91
        1
 92
        3
 72
     0
 73
     1
 93
        3
 10
3.1219250000000001
 20
0.339135
 10
3.1385916666666667
 20
0.4391350000000001
 10
3.1052583333333335
 20
0.4391350000000001
 97
        1
330
91
 75
     0
 76
     0
 98
        0
  0
TEXT
  5
93
100
AcDbEntity
  8
0
  6
Continuous
 62
   252
100
AcDbText
 10
2.938386
 20
0.620815
 30
0.0
 40
0.079861
  1
0.640
 72
     1
 11
3.078383
 21
0.660745
 31
0.0
100
AcDbText
 73
     2
  0
TEXT
  5
94
100
AcDbEntity
  8
0
  6
Continuous
 62
   252
100
AcDbText
 10
3.218379
 20
0.620815
 30
0.0
 40
0.079861
  1
in
 11
3.218379
 21
0.700676
 31
0.0
100
AcDbText
 73
     3
  0
ENDBLK
  5
95
100
AcDbEntity
  8
0
100
AcDbBlockEnd
  0
BLOCK
  5
98
100
AcDbEntity
  8
0
100
AcDbBlockBegin
  2
*D4
 70
     1
 10
0.0
 20
0.0
 30
0.0
  3
*D4
  1

  0
LINE
  5
99
100
AcDbEntity
  8
0
  6
Continuous
 62
   252
100
AcDbLine
 10
0.625
 20
0.66345
 30
0.0
 11
-0.155269
 21
0.66345
 31
0.0
1001
ACAD
1000
TCW40_DEV_WIDTH
1002
{
1040
-3.0
1002
}
  0
LINE
  5
9A
100
AcDbEntity
  8
0
  6
Continuous
 62
   252
100
AcDbLine
 10
0.635638
 20
0.339135
 30
0.0
 11
-0.155269
 21
0.339135
 31
0.0
1001
ACAD
1000
TCW40_DEV_WIDTH
1002
{
1040
-3.0
1002
}
  0
LWPOLYLINE
  5
9B
100
AcDbEntity
  8
0
  6
Continuous
 62
   252
100
AcDbPolyline
 90
        2
 70
     0
 10
-0.155269
 20
0.86345
 10
-0.155269
 20
0.76345
  0
LWPOLYLINE
  5
9C
100
AcDbEntity
  8
0
  6
Continuous
 62
   252
100
AcDbPolyline
 90
        2
 70
     0
 10
-0.155269
 20
0.76345
 40
0.0
 41
0.0
 10
-0.155269
 20
0.76345
 40
0.0
 41
0.0
  0
LWPOLYLINE
  5
9D
100
AcDbEntity
  8
0
  6
Continuous
 62
   252
100
AcDbPolyline
 90
        4
 70
     0
 10
-0.055269
 20
0.139135
 10
-0.155269
 20
0.139135
 10
-0.155269
 20
0.239135
 10
-0.155269
 20
0.239135
  0
LWPOLYLINE
  5
A0
100
AcDbEntity
  8
0
  6
Continuous
 62
   252
100
AcDbPolyline
 90
        4
 70
     0
 10
-0.155269
 20
0.339135
 40
0.0
 41
0.0
 10
-0.171936
 20
0.239135
 40
0.0
 41
0.0
 10
-0.138602
 20
0.239135
 40
0.0
 41
0.0
 10
-0.155269
 20
0.339135
 40
0.0
 41
0.0
  0
HATCH
  5
9E
100
AcDbEntity
  8
0
  6
Continuous
 62
   252
100
AcDbHatch
 10
0.0
 20
0.0
 30
0.0
210
0.0
220
0.0
230
1.0
  2
SOLID
 70
     1
 71
     1
 91
        1
 92
        3
 72
     0
 73
     1
 93
        3
 10
-0.155269
 20
0.3391350000000001
 10
-0.1719356666666667
 20
0.2391350000000001
 10
-0.1386023333333333
 20
0.2391350000000001
 97
        1
330
9F
 75
     0
 76
     0
 98
        0
  0
LWPOLYLINE
  5
A3
100
AcDbEntity
  8
0
  6
Continuous
 62
   252
100
AcDbPolyline
 90
        4
 70
     0
 10
-0.155269
 20
0.66345
 40
0.0
 41
0.0
 10
-0.138602
 20
0.76345
 40
0.0
 41
0.0
 10
-0.171936
 20
0.76345
 40
0.0
 41
0.0
 10
-0.155269
 20
0.66345
 40
0.0
 41
0.0
  0
HATCH
  5
A1
100
AcDbEntity
  8
0
  6
Continuous
 62
   252
100
AcDbHatch
 10
0.0
 20
0.0
 30
0.0
210
0.0
220
0.0
230
1.0
  2
SOLID
 70
     1
 71
     1
 91
        1
 92
        3
 72
     0
 73
     1
 93
        3
 10
-0.155269
 20
0.6634500000000001
 10
-0.1386023333333333
 20
0.7634500000000001
 10
-0.1719356666666666
 20
0.7634500000000001
 97
        1
330
A2
 75
     0
 76
     0
 98
        0
  0
TEXT
  5
A4
100
AcDbEntity
  8
0
  6
Continuous
 62
   252
100
AcDbText
 10
0.444731
 20
0.100941
 30
0.0
 40
0.079861
  1
0.324
 72
     1
 11
0.584728
 21
0.140871
 31
0.0
100
AcDbText
 73
     2
  0
TEXT
  5
A5
100
AcDbEntity
  8
0
  6
Continuous
 62
   252
100
AcDbText
 10
0.724724
 20
0.100941
 30
0.0
 40
0.079861
  1
in
 11
0.724724
 21
0.180802
 31
0.0
100
AcDbText
 73
     3
  0
ENDBLK
  5
A6
100
AcDbEntity
  8
0
100
AcDbBlockEnd
  0
BLOCK
  5
AA
100
AcDbEntity
  8
0
100
AcDbBlockBegin
  2
*D5
 70
     1
 10
0.0
 20
0.0
 30
0.0
  3
*D5
  1

  0
LINE
  5
AB
100
AcDbEntity
  8
0
  6
Continuous
 62
   252
100
AcDbLine
 10
0.505906
 20
1.884395
 30
0.0
 11
0.505906
 21
1.816029
 31
0.0
1001
ACAD
1000
TCW40_DEV_WIDTH
1002
{
1040
-3.0
1002
}
  0
LINE
  5
AC
100
AcDbEntity
  8
0
  6
Continuous
 62
   252
100
AcDbLine
 10
1.994094
 20
1.884395
 30
0.0
 11
1.994094
 21
1.816029
 31
0.0
1001
ACAD
1000
TCW40_DEV_WIDTH
1002
{
1040
-3.0
1002
}
  0
LWPOLYLINE
  5
AD
100
AcDbEntity
  8
0
  6
Continuous
 62
   252
100
AcDbPolyline
 90
        4
 70
     0
 10
0.605906
 20
1.816029
 10
0.605906
 20
1.816029
 10
0.605906
 20
1.816029
 10
1.053961
 20
1.816029
  0
LWPOLYLINE
  5
AE
100
AcDbEntity
  8
0
  6
Continuous
 62
   252
100
AcDbPolyline
 90
        4
 70
     0
 10
1.894094
 20
1.816029
 10
1.894094
 20
1.816029
 10
1.894094
 20
1.816029
 10
1.446039
 20
1.816029
  0
LWPOLYLINE
  5
B1
100
AcDbEntity
  8
0
  6
Continuous
 62
   252
100
AcDbPolyline
 90
        4
 70
     0
 10
0.505906
 20
1.816029
 40
0.0
 41
0.0
 10
0.605906
 20
1.799362
 40
0.0
 41
0.0
 10
0.605906
 20
1.832696
 40
0.0
 41
0.0
 10
0.505906
 20
1.816029
 40
0.0
 41
0.0
  0
HATCH
  5
AF
100
AcDbEntity
  8
0
  6
Continuous
 62
   252
100
AcDbHatch
 10
0.0
 20
0.0
 30
0.0
210
0.0
220
0.0
230
1.0
  2
SOLID
 70
     1
 71
     1
 91
        1
 92
        3
 72
     0
 73
     1
 93
        3
 10
0.505906
 20
1.8160289999999999
 10
0.6059059999999999
 20
1.7993623333333333
 10
0.6059059999999999
 20
1.8326956666666665
 97
        1
330
B0
 75
     0
 76
     0
 98
        0
  0
LWPOLYLINE
  5
B4
100
AcDbEntity
  8
0
  6
Continuous
 62
   252
100
AcDbPolyline
 90
        4
 70
     0
 10
1.994094
 20
1.816029
 40
0.0
 41
0.0
 10
1.894094
 20
1.832696
 40
0.0
 41
0.0
 10
1.894094
 20
1.799362
 40
0.0
 41
0.0
 10
1.994094
 20
1.816029
 40
0.0
 41
0.0
  0
HATCH
  5
B2
100
AcDbEntity
  8
0
  6
Continuous
 62
   252
100
AcDbHatch
 10
0.0
 20
0.0
 30
0.0
210
0.0
220
0.0
230
1.0
  2
SOLID
 70
     1
 71
     1
 91
        1
 92
        3
 72
     0
 73
     1
 93
        3
 10
1.994094
 20
1.8160289999999999
 10
1.8940939999999999
 20
1.8326956666666665
 10
1.8940939999999999
 20
1.7993623333333333
 97
        1
330
B3
 75
     0
 76
     0
 98
        0
  0
TEXT
  5
B5
100
AcDbEntity
  8
0
  6
Continuous
 62
   252
100
AcDbText
 10
1.066461
 20
1.777835
 30
0.0
 40
0.079861
  1
1.488
 72
     1
 11
1.206458
 21
1.817765
 31
0.0
100
AcDbText
 73
     2
  0
TEXT
  5
B6
100
AcDbEntity
  8
0
  6
Continuous
 62
   252
100
AcDbText
 10
1.346454
 20
1.777835
 30
0.0
 40
0.079861
  1
in
 11
1.346454
 21
1.857696
 31
0.0
100
AcDbText
 73
     3
  0
ENDBLK
  5
B7
100
AcDbEntity
  8
0
100
AcDbBlockEnd
  0
BLOCK
  5
BA
100
AcDbEntity
  8
0
100
AcDbBlockBegin
  2
*D6
 70
     1
 10
0.0
 20
0.0
 30
0.0
  3
*D6
  1

  0
LINE
  5
BB
100
AcDbEntity
  8
0
  6
Continuous
 62
   252
100
AcDbLine
 10
0.3125
 20
2.1875
 30
0.0
 11
0.3125
 21
2.674942
 31
0.0
1001
ACAD
1000
TCW40_DEV_WIDTH
1002
{
1040
-3.0
1002
}
  0
LINE
  5
BC
100
AcDbEntity
  8
0
  6
Continuous
 62
   252
100
AcDbLine
 10
2.1875
 20
2.1875
 30
0.0
 11
2.1875
 21
2.674942
 31
0.0
1001
ACAD
1000
TCW40_DEV_WIDTH
1002
{
1040
-3.0
1002
}
  0
LWPOLYLINE
  5
BD
100
AcDbEntity
  8
0
  6
Continuous
 62
   252
100
AcDbPolyline
 90
        4
 70
     0
 10
0.4125
 20
2.674942
 10
0.4125
 20
2.674942
 10
0.4125
 20
2.674942
 10
1.053961
 20
2.674942
  0
LWPOLYLINE
  5
BE
100
AcDbEntity
  8
0
  6
Continuous
 62
   252
100
AcDbPolyline
 90
        4
 70
     0
 10
2.0875
 20
2.674942
 10
2.0875
 20
2.674942
 10
2.0875
 20
2.674942
 10
1.446039
 20
2.674942
  0
LWPOLYLINE
  5
C1
100
AcDbEntity
  8
0
  6
Continuous
 62
   252
100
AcDbPolyline
 90
        4
 70
     0
 10
0.3125
 20
2.674942
 40
0.0
 41
0.0
 10
0.4125
 20
2.658275
 40
0.0
 41
0.0
 10
0.4125
 20
2.691609
 40
0.0
 41
0.0
 10
0.3125
 20
2.674942
 40
0.0
 41
0.0
  0
HATCH
  5
BF
100
AcDbEntity
  8
0
  6
Continuous
 62
   252
100
AcDbHatch
 10
0.0
 20
0.0
 30
0.0
210
0.0
220
0.0
230
1.0
  2
SOLID
 70
     1
 71
     1
 91
        1
 92
        3
 72
     0
 73
     1
 93
        3
 10
0.3125
 20
2.6749420000000002
 10
0.4125
 20
2.6582753333333335
 10
0.4125
 20
2.6916086666666668
 97
        1
330
C0
 75
     0
 76
     0
 98
        0
  0
LWPOLYLINE
  5
C4
100
AcDbEntity
  8
0
  6
Continuous
 62
   252
100
AcDbPolyline
 90
        4
 70
     0
 10
2.1875
 20
2.674942
 40
0.0
 41
0.0
 10
2.0875
 20
2.691609
 40
0.0
 41
0.0
 10
2.0875
 20
2.658275
 40
0.0
 41
0.0
 10
2.1875
 20
2.674942
 40
0.0
 41
0.0
  0
HATCH
  5
C2
100
AcDbEntity
  8
0
  6
Continuous
 62
   252
100
AcDbHatch
 10
0.0
 20
0.0
 30
0.0
210
0.0
220
0.0
230
1.0
  2
SOLID
 70
     1
 71
     1
 91
        1
 92
        3
 72
     0
 73
     1
 93
        3
 10
2.1875
 20
2.6749420000000002
 10
2.0874999999999999
 20
2.6916086666666668
 10
2.0874999999999999
 20
2.6582753333333335
 97
        1
330
C3
 75
     0
 76
     0
 98
        0
  0
TEXT
  5
C5
100
AcDbEntity
  8
0
  6
Continuous
 62
   252
100
AcDbText
 10
1.066461
 20
2.636748
 30
0.0
 40
0.079861
  1
1.875
 72
     1
 11
1.206458
 21
2.676678
 31
0.0
100
AcDbText
 73
     2
  0
TEXT
  5
C6
100
AcDbEntity
  8
0
  6
Continuous
 62
   252
100
AcDbText
 10
1.346454
 20
2.636748
 30
0.0
 40
0.079861
  1
in
 11
1.346454
 21
2.716609
 31
0.0
100
AcDbText
 73
     3
  0
ENDBLK
  5
C7
100
AcDbEntity
  8
0
100
AcDbBlockEnd
  0
BLOCK
  5
CA
100
AcDbEntity
  8
0
100
AcDbBlockBegin
  2
*D7
 70
     1
 10
0.0
 20
0.0
 30
0.0
  3
*D7
  1

  0
LINE
  5
CB
100
AcDbEntity
  8
0
  6
Continuous
 62
   252
100
AcDbLine
 10
0.3125
 20
2.1875
 30
0.0
 11
-0.927017
 21
2.1875
 31
0.0
1001
ACAD
1000
TCW40_DEV_WIDTH
1002
{
1040
-3.0
1002
}
  0
LINE
  5
CC
100
AcDbEntity
  8
0
  6
Continuous
 62
   252
100
AcDbLine
 10
0.3125
 20
0.3125
 30
0.0
 11
-0.927017
 21
0.3125
 31
0.0
1001
ACAD
1000
TCW40_DEV_WIDTH
1002
{
1040
-3.0
1002
}
  0
LWPOLYLINE
  5
CD
100
AcDbEntity
  8
0
  6
Continuous
 62
   252
100
AcDbPolyline
 90
        4
 70
     0
 10
-0.927017
 20
2.0875
 10
-0.927017
 20
2.0875
 10
-0.927017
 20
2.0875
 10
-0.927017
 20
1.325
  0
LWPOLYLINE
  5
CE
100
AcDbEntity
  8
0
  6
Continuous
 62
   252
100
AcDbPolyline
 90
        4
 70
     0
 10
-0.927017
 20
0.4125
 10
-0.927017
 20
0.4125
 10
-0.927017
 20
0.4125
 10
-0.927017
 20
1.175
  0
LWPOLYLINE
  5
D1
100
AcDbEntity
  8
0
  6
Continuous
 62
   252
100
AcDbPolyline
 90
        4
 70
     0
 10
-0.927017
 20
2.1875
 40
0.0
 41
0.0
 10
-0.943684
 20
2.0875
 40
0.0
 41
0.0
 10
-0.91035
 20
2.0875
 40
0.0
 41
0.0
 10
-0.927017
 20
2.1875
 40
0.0
 41
0.0
  0
HATCH
  5
CF
100
AcDbEntity
  8
0
  6
Continuous
 62
   252
100
AcDbHatch
 10
0.0
 20
0.0
 30
0.0
210
0.0
220
0.0
230
1.0
  2
SOLID
 70
     1
 71
     1
 91
        1
 92
        3
 72
     0
 73
     1
 93
        3
 10
-0.927017
 20
2.1875
 10
-0.9436836666666667
 20
2.0874999999999999
 10
-0.9103503333333333
 20
2.0874999999999999
 97
        1
330
D0
 75
     0
 76
     0
 98
        0
  0
LWPOLYLINE
  5
D4
100
AcDbEntity
  8
0
  6
Continuous
 62
   252
100
AcDbPolyline
 90
        4
 70
     0
 10
-0.927017
 20
0.3125
 40
0.0
 41
0.0
 10
-0.91035
 20
0.4125
 40
0.0
 41
0.0
 10
-0.943684
 20
0.4125
 40
0.0
 41
0.0
 10
-0.927017
 20
0.3125
 40
0.0
 41
0.0
  0
HATCH
  5
D2
100
AcDbEntity
  8
0
  6
Continuous
 62
   252
100
AcDbHatch
 10
0.0
 20
0.0
 30
0.0
210
0.0
220
0.0
230
1.0
  2
SOLID
 70
     1
 71
     1
 91
        1
 92
        3
 72
     0
 73
     1
 93
        3
 10
-0.927017
 20
0.3125000000000001
 10
-0.9103503333333333
 20
0.4125000000000001
 10
-0.9436836666666667
 20
0.4125000000000001
 97
        1
330
D3
 75
     0
 76
     0
 98
        0
  0
TEXT
  5
D5
100
AcDbEntity
  8
0
  6
Continuous
 62
   252
100
AcDbText
 10
-1.110556
 20
1.211806
 30
0.0
 40
0.079861
  1
1.875
 72
     1
 11
-0.970559
 21
1.251736
 31
0.0
100
AcDbText
 73
     2
  0
TEXT
  5
D6
100
AcDbEntity
  8
0
  6
Continuous
 62
   252
100
AcDbText
 10
-0.830563
 20
1.211806
 30
0.0
 40
0.079861
  1
in
 11
-0.830563
 21
1.291667
 31
0.0
100
AcDbText
 73
     3
  0
ENDBLK
  5
D7
100
AcDbEntity
  8
0
100
AcDbBlockEnd
  0
BLOCK
  5
DC
100
AcDbEntity
  8
0
100
AcDbBlockBegin
  2
*D8
 70
     1
 10
0.0
 20
0.0
 30
0.0
  3
*D8
  1

  0
LINE
  5
DD
100
AcDbEntity
  8
0
  6
Continuous
 62
     7
100
AcDbLine
 10
0.655
 20
1.70914
 30
0.0
 11
0.655
 21
1.597221
 31
0.0
1001
ACAD
1000
TCW40_DEV_WIDTH
1002
{
1040
-3.0
1002
}
  0
LINE
  5
DE
100
AcDbEntity
  8
0
  6
Continuous
 62
     7
100
AcDbLine
 10
1.845
 20
1.70914
 30
0.0
 11
1.845
 21
1.597221
 31
0.0
1001
ACAD
1000
TCW40_DEV_WIDTH
1002
{
1040
-3.0
1002
}
  0
LWPOLYLINE
  5
DF
100
AcDbEntity
  8
0
  6
Continuous
 62
     7
100
AcDbPolyline
 90
        4
 70
     0
 10
0.755
 20
1.597221
 10
0.755
 20
1.597221
 10
0.755
 20
1.597221
 10
1.053961
 20
1.597221
  0
LWPOLYLINE
  5
E0
100
AcDbEntity
  8
0
  6
Continuous
 62
     7
100
AcDbPolyline
 90
        4
 70
     0
 10
1.745
 20
1.597221
 10
1.745
 20
1.597221
 10
1.745
 20
1.597221
 10
1.446039
 20
1.597221
  0
LWPOLYLINE
  5
E3
100
AcDbEntity
  8
0
  6
Continuous
 62
     7
100
AcDbPolyline
 90
        4
 70
     0
 10
0.655
 20
1.597221
 40
0.0
 41
0.0
 10
0.755
 20
1.580554
 40
0.0
 41
0.0
 10
0.755
 20
1.613888
 40
0.0
 41
0.0
 10
0.655
 20
1.597221
 40
0.0
 41
0.0
  0
HATCH
  5
E1
100
AcDbEntity
  8
0
  6
Continuous
 62
     7
100
AcDbHatch
 10
0.0
 20
0.0
 30
0.0
210
0.0
220
0.0
230
1.0
  2
SOLID
 70
     1
 71
     1
 91
        1
 92
        3
 72
     0
 73
     1
 93
        3
 10
0.655
 20
1.597221
 10
0.755
 20
1.5805543333333334
 10
0.755
 20
1.6138876666666666
 97
        1
330
E2
 75
     0
 76
     0
 98
        0
  0
LWPOLYLINE
  5
E6
100
AcDbEntity
  8
0
  6
Continuous
 62
     7
100
AcDbPolyline
 90
        4
 70
     0
 10
1.845
 20
1.597221
 40
0.0
 41
0.0
 10
1.745
 20
1.613888
 40
0.0
 41
0.0
 10
1.745
 20
1.580554
 40
0.0
 41
0.0
 10
1.845
 20
1.597221
 40
0.0
 41
0.0
  0
HATCH
  5
E4
100
AcDbEntity
  8
0
  6
Continuous
 62
     7
100
AcDbHatch
 10
0.0
 20
0.0
 30
0.0
210
0.0
220
0.0
230
1.0
  2
SOLID
 70
     1
 71
     1
 91
        1
 92
        3
 72
     0
 73
     1
 93
        3
 10
1.845
 20
1.597221
 10
1.7449999999999999
 20
1.6138876666666666
 10
1.7449999999999999
 20
1.5805543333333334
 97
        1
330
E5
 75
     0
 76
     0
 98
        0
  0
TEXT
  5
E7
100
AcDbEntity
  8
0
  6
Continuous
 62
     7
100
AcDbText
 10
1.066461
 20
1.559027
 30
0.0
 40
0.079861
  1
1.190
 72
     1
 11
1.206458
 21
1.598957
 31
0.0
100
AcDbText
 73
     2
  0
TEXT
  5
E8
100
AcDbEntity
  8
0
  6
Continuous
 62
     7
100
AcDbText
 10
1.346454
 20
1.559027
 30
0.0
 40
0.079861
  1
in
 11
1.346454
 21
1.638888
 31
0.0
100
AcDbText
 73
     3
  0
ENDBLK
  5
E9
100
AcDbEntity
  8
0
100
AcDbBlockEnd
  0
BLOCK
  5
EC
100
AcDbEntity
  8
0
100
AcDbBlockBegin
  2
*D9
 70
     1
 10
0.0
 20
0.0
 30
0.0
  3
*D9
  1

  0
LINE
  5
ED
100
AcDbEntity
  8
0
  6
Continuous
 62
     7
100
AcDbLine
 10
0.655
 20
1.70914
 30
0.0
 11
0.829137
 21
1.70914
 31
0.0
1001
ACAD
1000
TCW40_DEV_WIDTH
1002
{
1040
-3.0
1002
}
  0
LINE
  5
EE
100
AcDbEntity
  8
0
  6
Continuous
 62
     7
100
AcDbLine
 10
0.655
 20
1.15414
 30
0.0
 11
0.829137
 21
1.15414
 31
0.0
1001
ACAD
1000
TCW40_DEV_WIDTH
1002
{
1040
-3.0
1002
}
  0
LWPOLYLINE
  5
EF
100
AcDbEntity
  8
0
  6
Continuous
 62
     7
100
AcDbPolyline
 90
        4
 70
     0
 10
0.829137
 20
1.60914
 10
0.829137
 20
1.60914
 10
0.829137
 20
1.60914
 10
0.829137
 20
1.50664
  0
LWPOLYLINE
  5
F0
100
AcDbEntity
  8
0
  6
Continuous
 62
     7
100
AcDbPolyline
 90
        4
 70
     0
 10
0.829137
 20
1.25414
 10
0.829137
 20
1.25414
 10
0.829137
 20
1.25414
 10
0.829137
 20
1.35664
  0
LWPOLYLINE
  5
F3
100
AcDbEntity
  8
0
  6
Continuous
 62
     7
100
AcDbPolyline
 90
        4
 70
     0
 10
0.829137
 20
1.70914
 40
0.0
 41
0.0
 10
0.81247
 20
1.60914
 40
0.0
 41
0.0
 10
0.845804
 20
1.60914
 40
0.0
 41
0.0
 10
0.829137
 20
1.70914
 40
0.0
 41
0.0
  0
HATCH
  5
F1
100
AcDbEntity
  8
0
  6
Continuous
 62
     7
100
AcDbHatch
 10
0.0
 20
0.0
 30
0.0
210
0.0
220
0.0
230
1.0
  2
SOLID
 70
     1
 71
     1
 91
        1
 92
        3
 72
     0
 73
     1
 93
        3
 10
0.829137
 20
1.7091400000000001
 10
0.8124703333333333
 20
1.60914
 10
0.8458036666666667
 20
1.60914
 97
        1
330
F2
 75
     0
 76
     0
 98
        0
  0
LWPOLYLINE
  5
F6
100
AcDbEntity
  8
0
  6
Continuous
 62
     7
100
AcDbPolyline
 90
        4
 70
     0
 10
0.829137
 20
1.15414
 40
0.0
 41
0.0
 10
0.845804
 20
1.25414
 40
0.0
 41
0.0
 10
0.81247
 20
1.25414
 40
0.0
 41
0.0
 10
0.829137
 20
1.15414
 40
0.0
 41
0.0
  0
HATCH
  5
F4
100
AcDbEntity
  8
0
  6
Continuous
 62
     7
100
AcDbHatch
 10
0.0
 20
0.0
 30
0.0
210
0.0
220
0.0
230
1.0
  2
SOLID
 70
     1
 71
     1
 91
        1
 92
        3
 72
     0
 73
     1
 93
        3
 10
0.829137
 20
1.1541399999999999
 10
0.8458036666666667
 20
1.25414
 10
0.8124703333333333
 20
1.25414
 97
        1
330
F5
 75
     0
 76
     0
 98
        0
  0
TEXT
  5
F7
100
AcDbEntity
  8
0
  6
Continuous
 62
     7
100
AcDbText
 10
0.645598
 20
1.393446
 30
0.0
 40
0.079861
  1
0.555
 72
     1
 11
0.785595
 21
1.433376
 31
0.0
100
AcDbText
 73
     2
  0
TEXT
  5
F8
100
AcDbEntity
  8
0
  6
Continuous
 62
     7
100
AcDbText
 10
0.925591
 20
1.393446
 30
0.0
 40
0.079861
  1
in
 11
0.925591
 21
1.473307
 31
0.0
100
AcDbText
 73
     3
  0
ENDBLK
  5
F9
100
AcDbEntity
  8
0
100
AcDbBlockEnd
  0
BLOCK
  5
10A
100
AcDbEntity
  8
0
100
AcDbBlockBegin
  2
*D10
 70
     1
 10
0.0
 20
0.0
 30
0.0
  3
*D10
  1

  0
LINE
  5
10B
100
AcDbEntity
  8
0
370
     0
  6
Continuous
 62
     7
100
AcDbLine
 10
0.541339
 20
2.032033
 30
0.0
 11
0.541339
 21
2.552225
 31
0.0
  0
LINE
  5
10C
100
AcDbEntity
  8
0
370
     0
  6
Continuous
 62
     7
100
AcDbLine
 10
1.958661
 20
2.032033
 30
0.0
 11
1.958661
 21
2.552225
 31
0.0
  0
LWPOLYLINE
  5
10D
100
AcDbEntity
  8
0
  6
Continuous
 62
     7
100
AcDbPolyline
 90
        4
 70
     0
 10
0.641339
 20
2.552225
 10
0.641339
 20
2.552225
 10
0.641339
 20
2.552225
 10
1.053961
 20
2.552225
  0
LWPOLYLINE
  5
10E
100
AcDbEntity
  8
0
  6
Continuous
 62
     7
100
AcDbPolyline
 90
        4
 70
     0
 10
1.858661
 20
2.552225
 10
1.858661
 20
2.552225
 10
1.858661
 20
2.552225
 10
1.446039
 20
2.552225
  0
LWPOLYLINE
  5
111
100
AcDbEntity
  8
0
  6
Continuous
 62
     7
100
AcDbPolyline
 90
        4
 70
     0
 10
0.541339
 20
2.552225
 40
0.0
 41
0.0
 10
0.641339
 20
2.535558
 40
0.0
 41
0.0
 10
0.641339
 20
2.568891
 40
0.0
 41
0.0
 10
0.541339
 20
2.552225
 40
0.0
 41
0.0
  0
HATCH
  5
10F
100
AcDbEntity
  8
0
  6
Continuous
 62
     7
100
AcDbHatch
 10
0.0
 20
0.0
 30
0.0
210
0.0
220
0.0
230
1.0
  2
SOLID
 70
     1
 71
     1
 91
        1
 92
        3
 72
     0
 73
     1
 93
        3
 10
0.5413389999999998
 20
2.5522246587107125
 10
0.6413389999999998
 20
2.5355579920440459
 10
0.6413389999999998
 20
2.5688913253773791
 97
        1
330
110
 75
     0
 76
     0
 98
        0
  0
LWPOLYLINE
  5
114
100
AcDbEntity
  8
0
  6
Continuous
 62
     7
100
AcDbPolyline
 90
        4
 70
     0
 10
1.958661
 20
2.552225
 40
0.0
 41
0.0
 10
1.858661
 20
2.568891
 40
0.0
 41
0.0
 10
1.858661
 20
2.535558
 40
0.0
 41
0.0
 10
1.958661
 20
2.552225
 40
0.0
 41
0.0
  0
HATCH
  5
112
100
AcDbEntity
  8
0
  6
Continuous
 62
     7
100
AcDbHatch
 10
0.0
 20
0.0
 30
0.0
210
0.0
220
0.0
230
1.0
  2
SOLID
 70
     1
 71
     1
 91
        1
 92
        3
 72
     0
 73
     1
 93
        3
 10
1.9586610000000002
 20
2.5522246587107125
 10
1.8586610000000001
 20
2.5688913253773791
 10
1.8586610000000001
 20
2.5355579920440459
 97
        1
330
113
 75
     0
 76
     0
 98
        0
  0
TEXT
  5
115
100
AcDbEntity
  8
0
  6
Continuous
 62
     7
100
AcDbText
 10
1.066461
 20
2.51403
 30
0.0
 40
0.079861
  1
1.417
 72
     1
 11
1.206458
 21
2.553961
 31
0.0
100
AcDbText
 73
     2
  0
TEXT
  5
116
100
AcDbEntity
  8
0
  6
Continuous
 62
     7
100
AcDbText
 10
1.346454
 20
2.51403
 30
0.0
 40
0.079861
  1
in
 11
1.346454
 21
2.593891
 31
0.0
100
AcDbText
 73
     3
  0
ENDBLK
  5
117
100
AcDbEntity
  8
0
100
AcDbBlockEnd
  0
BLOCK
  5
11A
100
AcDbEntity
  8
0
100
AcDbBlockBegin
  2
*D11
 70
     1
 10
0.0
 20
0.0
 30
0.0
  3
*D11
  1

  0
LINE
  5
11B
100
AcDbEntity
  8
0
370
     0
  6
Continuous
 62
     7
100
AcDbLine
 10
0.541339
 20
0.831246
 30
0.0
 11
0.541339
 21
0.853559
 31
0.0
  0
LINE
  5
11C
100
AcDbEntity
  8
0
370
     0
  6
Continuous
 62
     7
100
AcDbLine
 10
1.958661
 20
0.831246
 30
0.0
 11
1.958661
 21
0.853559
 31
0.0
  0
LWPOLYLINE
  5
11D
100
AcDbEntity
  8
0
  6
Continuous
 62
     7
100
AcDbPolyline
 90
        4
 70
     0
 10
0.641339
 20
0.853559
 10
0.641339
 20
0.853559
 10
0.641339
 20
0.853559
 10
1.053961
 20
0.853559
  0
LWPOLYLINE
  5
11E
100
AcDbEntity
  8
0
  6
Continuous
 62
     7
100
AcDbPolyline
 90
        4
 70
     0
 10
1.858661
 20
0.853559
 10
1.858661
 20
0.853559
 10
1.858661
 20
0.853559
 10
1.446039
 20
0.853559
  0
LWPOLYLINE
  5
121
100
AcDbEntity
  8
0
  6
Continuous
 62
     7
100
AcDbPolyline
 90
        4
 70
     0
 10
0.541339
 20
0.853559
 40
0.0
 41
0.0
 10
0.641339
 20
0.836893
 40
0.0
 41
0.0
 10
0.641339
 20
0.870226
 40
0.0
 41
0.0
 10
0.541339
 20
0.853559
 40
0.0
 41
0.0
  0
HATCH
  5
11F
100
AcDbEntity
  8
0
  6
Continuous
 62
     7
100
AcDbHatch
 10
0.0
 20
0.0
 30
0.0
210
0.0
220
0.0
230
1.0
  2
SOLID
 70
     1
 71
     1
 91
        1
 92
        3
 72
     0
 73
     1
 93
        3
 10
0.5413389999999998
 20
0.8535591732780362
 10
0.6413389999999998
 20
0.8368925066113695
 10
0.6413389999999998
 20
0.8702258399447029
 97
        1
330
120
 75
     0
 76
     0
 98
        0
  0
LWPOLYLINE
  5
124
100
AcDbEntity
  8
0
  6
Continuous
 62
     7
100
AcDbPolyline
 90
        4
 70
     0
 10
1.958661
 20
0.853559
 40
0.0
 41
0.0
 10
1.858661
 20
0.870226
 40
0.0
 41
0.0
 10
1.858661
 20
0.836893
 40
0.0
 41
0.0
 10
1.958661
 20
0.853559
 40
0.0
 41
0.0
  0
HATCH
  5
122
100
AcDbEntity
  8
0
  6
Continuous
 62
     7
100
AcDbHatch
 10
0.0
 20
0.0
 30
0.0
210
0.0
220
0.0
230
1.0
  2
SOLID
 70
     1
 71
     1
 91
        1
 92
        3
 72
     0
 73
     1
 93
        3
 10
1.9586610000000002
 20
0.8535591732780362
 10
1.8586610000000001
 20
0.8702258399447029
 10
1.8586610000000001
 20
0.8368925066113695
 97
        1
330
123
 75
     0
 76
     0
 98
        0
  0
TEXT
  5
125
100
AcDbEntity
  8
0
  6
Continuous
 62
     7
100
AcDbText
 10
1.066461
 20
0.815365
 30
0.0
 40
0.079861
  1
1.417
 72
     1
 11
1.206458
 21
0.855295
 31
0.0
100
AcDbText
 73
     2
  0
TEXT
  5
126
100
AcDbEntity
  8
0
  6
Continuous
 62
     7
100
AcDbText
 10
1.346454
 20
0.815365
 30
0.0
 40
0.079861
  1
in
 11
1.346454
 21
0.895226
 31
0.0
100
AcDbText
 73
     3
  0
ENDBLK
  5
127
100
AcDbEntity
  8
0
100
AcDbBlockEnd
  0
BLOCK
  5
12A
100
AcDbEntity
  8
0
100
AcDbBlockBegin
  2
*D12
 70
     1
 10
0.0
 20
0.0
 30
0.0
  3
*D12
  1

  0
TEXT
  5
12B
100
AcDbEntity
  8
0
  6
Continuous
 62
     7
100
AcDbText
 10
-1.821907
 20
2.419545
 30
0.0
 40
0.079861
  1
R1.120
 72
     1
 11
-1.64151
 21
2.459475
 31
0.0
100
AcDbText
 73
     2
  0
LWPOLYLINE
  5
12C
100
AcDbEntity
  8
0
  6
Continuous
 62
     7
100
AcDbPolyline
 90
        3
 70
     0
 10
0.202337
 20
1.875142
 40
0.0
 41
0.0
 10
-0.774027
 20
2.457739
 40
0.0
 41
0.0
 10
-0.874027
 20
2.457739
 40
0.0
 41
0.0
  0
LWPOLYLINE
  5
12F
100
AcDbEntity
  8
0
  6
Continuous
 62
     7
100
AcDbPolyline
 90
        4
 70
     0
 10
0.288211
 20
1.823901
 40
0.0
 41
0.0
 10
0.210877
 20
1.889454
 40
0.0
 41
0.0
 10
0.193797
 20
1.860829
 40
0.0
 41
0.0
 10
0.288211
 20
1.823901
 40
0.0
 41
0.0
  0
HATCH
  5
12D
100
AcDbEntity
  8
0
  6
Continuous
 62
     7
100
AcDbHatch
 10
0.0
 20
0.0
 30
0.0
210
0.0
220
0.0
230
1.0
  2
SOLID
 70
     1
 71
     1
 91
        1
 92
        3
 72
     0
 73
     1
 93
        3
 10
0.2882109445163311
 20
1.8239005251363982
 10
0.2108771080912475
 20
1.8894539805873216
 10
0.193796735319331
 20
1.8608293063169743
 97
        1
330
12E
 75
     0
 76
     0
 98
        0
  0
LWPOLYLINE
  5
130
100
AcDbEntity
  8
0
  6
Continuous
 62
     7
100
AcDbPolyline
 90
        2
 70
     0
 10
1.2
 20
1.25
 10
1.3
 20
1.25
  0
LWPOLYLINE
  5
131
100
AcDbEntity
  8
0
  6
Continuous
 62
     7
100
AcDbPolyline
 90
        2
 70
     0
 10
1.25
 20
1.2
 40
0.0
 41
0.0
 10
1.25
 20
1.3
 40
0.0
 41
0.0
  0
TEXT
  5
132
100
AcDbEntity
  8
0
  6
Continuous
 62
     7
100
AcDbText
 10
-1.461112
 20
2.419545
 30
0.0
 40
0.079861
  1
in
 11
-1.461112
 21
2.499406
 31
0.0
100
AcDbText
 73
     3
  0
ENDBLK
  5
133
100
AcDbEntity
  8
0
100
AcDbBlockEnd
  0
BLOCK
  5
137
100
AcDbEntity
  8
0
100
AcDbBlockBegin
  2
*D13
 70
     1
 10
0.0
 20
0.0
 30
0.0
  3
*D13
  1

  0
LINE
  5
138
100
AcDbEntity
  8
0
370
     0
  6
Continuous
 62
     7
100
AcDbLine
 10
2.4
 20
2.4
 30
0.0
 11
2.4
 21
2.948447
 31
0.0
  0
LINE
  5
139
100
AcDbEntity
  8
0
370
     0
  6
Continuous
 62
     7
100
AcDbLine
 10
0.1
 20
2.4
 30
0.0
 11
0.1
 21
2.948447
 31
0.0
  0
LWPOLYLINE
  5
13A
100
AcDbEntity
  8
0
  6
Continuous
 62
     7
100
AcDbPolyline
 90
        4
 70
     0
 10
2.3
 20
2.948447
 10
2.3
 20
2.948447
 10
2.3
 20
2.948447
 10
1.446039
 20
2.948447
  0
LWPOLYLINE
  5
13B
100
AcDbEntity
  8
0
  6
Continuous
 62
     7
100
AcDbPolyline
 90
        4
 70
     0
 10
0.2
 20
2.948447
 10
0.2
 20
2.948447
 10
0.2
 20
2.948447
 10
1.053961
 20
2.948447
  0
LWPOLYLINE
  5
13E
100
AcDbEntity
  8
0
  6
Continuous
 62
     7
100
AcDbPolyline
 90
        4
 70
     0
 10
2.4
 20
2.948447
 40
0.0
 41
0.0
 10
2.3
 20
2.965114
 40
0.0
 41
0.0
 10
2.3
 20
2.93178
 40
0.0
 41
0.0
 10
2.4
 20
2.948447
 40
0.0
 41
0.0
  0
HATCH
  5
13C
100
AcDbEntity
  8
0
  6
Continuous
 62
     7
100
AcDbHatch
 10
0.0
 20
0.0
 30
0.0
210
0.0
220
0.0
230
1.0
  2
SOLID
 70
     1
 71
     1
 91
        1
 92
        3
 72
     0
 73
     1
 93
        3
 10
2.3999999999999995
 20
2.9484468363664216
 10
2.2999999999999994
 20
2.9651135030330882
 10
2.2999999999999994
 20
2.931780169699755
 97
        1
330
13D
 75
     0
 76
     0
 98
        0
  0
LWPOLYLINE
  5
141
100
AcDbEntity
  8
0
  6
Continuous
 62
     7
100
AcDbPolyline
 90
        4
 70
     0
 10
0.1
 20
2.948447
 40
0.0
 41
0.0
 10
0.2
 20
2.93178
 40
0.0
 41
0.0
 10
0.2
 20
2.965114
 40
0.0
 41
0.0
 10
0.1
 20
2.948447
 40
0.0
 41
0.0
  0
HATCH
  5
13F
100
AcDbEntity
  8
0
  6
Continuous
 62
     7
100
AcDbHatch
 10
0.0
 20
0.0
 30
0.0
210
0.0
220
0.0
230
1.0
  2
SOLID
 70
     1
 71
     1
 91
        1
 92
        3
 72
     0
 73
     1
 93
        3
 10
0.1000000000000001
 20
2.948446836366422
 10
0.2000000000000001
 20
2.9317801696997554
 10
0.2000000000000001
 20
2.9651135030330886
 97
        1
330
140
 75
     0
 76
     0
 98
        0
  0
TEXT
  5
142
100
AcDbEntity
  8
0
  6
Continuous
 62
     7
100
AcDbText
 10
1.066461
 20
2.910252
 30
0.0
 40
0.079861
  1
2.300
 72
     1
 11
1.206458
 21
2.950183
 31
0.0
100
AcDbText
 73
     2
  0
TEXT
  5
143
100
AcDbEntity
  8
0
  6
Continuous
 62
     7
100
AcDbText
 10
1.346454
 20
2.910252
 30
0.0
 40
0.079861
  1
in
 11
1.346454
 21
2.990113
 31
0.0
100
AcDbText
 73
     3
  0
ENDBLK
  5
144
100
AcDbEntity
  8
0
100
AcDbBlockEnd
  0
BLOCK
  5
147
100
AcDbEntity
  8
0
100
AcDbBlockBegin
  2
*D14
 70
     1
 10
0.0
 20
0.0
 30
0.0
  3
*D14
  1

  0
LINE
  5
148
100
AcDbEntity
  8
0
370
     0
  6
Continuous
 62
     7
100
AcDbLine
 10
0.1
 20
2.4
 30
0.0
 11
-0.481754
 21
2.4
 31
0.0
  0
LINE
  5
149
100
AcDbEntity
  8
0
370
     0
  6
Continuous
 62
     7
100
AcDbLine
 10
0.1
 20
0.1
 30
0.0
 11
-0.481754
 21
0.1
 31
0.0
  0
LWPOLYLINE
  5
14A
100
AcDbEntity
  8
0
  6
Continuous
 62
     7
100
AcDbPolyline
 90
        4
 70
     0
 10
-0.481754
 20
2.3
 10
-0.481754
 20
2.3
 10
-0.481754
 20
2.3
 10
-0.481754
 20
1.325
  0
LWPOLYLINE
  5
14B
100
AcDbEntity
  8
0
  6
Continuous
 62
     7
100
AcDbPolyline
 90
        4
 70
     0
 10
-0.481754
 20
0.2
 10
-0.481754
 20
0.2
 10
-0.481754
 20
0.2
 10
-0.481754
 20
1.175
  0
LWPOLYLINE
  5
14E
100
AcDbEntity
  8
0
  6
Continuous
 62
     7
100
AcDbPolyline
 90
        4
 70
     0
 10
-0.481754
 20
2.4
 40
0.0
 41
0.0
 10
-0.498421
 20
2.3
 40
0.0
 41
0.0
 10
-0.465088
 20
2.3
 40
0.0
 41
0.0
 10
-0.481754
 20
2.4
 40
0.0
 41
0.0
  0
HATCH
  5
14C
100
AcDbEntity
  8
0
  6
Continuous
 62
     7
100
AcDbHatch
 10
0.0
 20
0.0
 30
0.0
210
0.0
220
0.0
230
1.0
  2
SOLID
 70
     1
 71
     1
 91
        1
 92
        3
 72
     0
 73
     1
 93
        3
 10
-0.4817542872568711
 20
2.3999999999999999
 10
-0.4984209539235378
 20
2.2999999999999998
 10
-0.4650876205902044
 20
2.2999999999999998
 97
        1
330
14D
 75
     0
 76
     0
 98
        0
  0
LWPOLYLINE
  5
151
100
AcDbEntity
  8
0
  6
Continuous
 62
     7
100
AcDbPolyline
 90
        4
 70
     0
 10
-0.481754
 20
0.1
 40
0.0
 41
0.0
 10
-0.465088
 20
0.2
 40
0.0
 41
0.0
 10
-0.498421
 20
0.2
 40
0.0
 41
0.0
 10
-0.481754
 20
0.1
 40
0.0
 41
0.0
  0
HATCH
  5
14F
100
AcDbEntity
  8
0
  6
Continuous
 62
     7
100
AcDbHatch
 10
0.0
 20
0.0
 30
0.0
210
0.0
220
0.0
230
1.0
  2
SOLID
 70
     1
 71
     1
 91
        1
 92
        3
 72
     0
 73
     1
 93
        3
 10
-0.4817542872568715
 20
0.1000000000000001
 10
-0.4650876205902048
 20
0.2000000000000001
 10
-0.4984209539235381
 20
0.2000000000000001
 97
        1
330
150
 75
     0
 76
     0
 98
        0
  0
TEXT
  5
152
100
AcDbEntity
  8
0
  6
Continuous
 62
     7
100
AcDbText
 10
-0.665293
 20
1.211806
 30
0.0
 40
0.079861
  1
2.300
 72
     1
 11
-0.525297
 21
1.251736
 31
0.0
100
AcDbText
 73
     2
  0
TEXT
  5
153
100
AcDbEntity
  8
0
  6
Continuous
 62
     7
100
AcDbText
 10
-0.3853
 20
1.211806
 30
0.0
 40
0.079861
  1
in
 11
-0.3853
 21
1.291667
 31
0.0
100
AcDbText
 73
     3
  0
ENDBLK
  5
154
100
AcDbEntity
  8
0
100
AcDbBlockEnd
  0
BLOCK
  5
159
100
AcDbEntity
  8
0
100
AcDbBlockBegin
  2
*D15
 70
     1
 10
0.0
 20
0.0
 30
0.0
  3
*D15
  1

  0
LINE
  5
15A
100
AcDbEntity
  8
0
370
     0
  6
Continuous
 62
     7
100
AcDbLine
 10
0.05
 20
2.45
 30
0.0
 11
0.05
 21
3.143912
 31
0.0
  0
LINE
  5
15B
100
AcDbEntity
  8
0
370
     0
  6
Continuous
 62
     7
100
AcDbLine
 10
2.45
 20
2.45
 30
0.0
 11
2.45
 21
3.143912
 31
0.0
  0
LWPOLYLINE
  5
15C
100
AcDbEntity
  8
0
  6
Continuous
 62
     7
100
AcDbPolyline
 90
        4
 70
     0
 10
0.15
 20
3.143912
 10
0.15
 20
3.143912
 10
0.15
 20
3.143912
 10
1.053961
 20
3.143912
  0
LWPOLYLINE
  5
15D
100
AcDbEntity
  8
0
  6
Continuous
 62
     7
100
AcDbPolyline
 90
        4
 70
     0
 10
2.35
 20
3.143912
 10
2.35
 20
3.143912
 10
2.35
 20
3.143912
 10
1.446039
 20
3.143912
  0
LWPOLYLINE
  5
160
100
AcDbEntity
  8
0
  6
Continuous
 62
     7
100
AcDbPolyline
 90
        4
 70
     0
 10
0.05
 20
3.143912
 40
0.0
 41
0.0
 10
0.15
 20
3.127246
 40
0.0
 41
0.0
 10
0.15
 20
3.160579
 40
0.0
 41
0.0
 10
0.05
 20
3.143912
 40
0.0
 41
0.0
  0
HATCH
  5
15E
100
AcDbEntity
  8
0
  6
Continuous
 62
     7
100
AcDbHatch
 10
0.0
 20
0.0
 30
0.0
210
0.0
220
0.0
230
1.0
  2
SOLID
 70
     1
 71
     1
 91
        1
 92
        3
 72
     0
 73
     1
 93
        3
 10
0.0499999999999994
 20
3.1439124325308256
 10
0.1499999999999994
 20
3.127245765864159
 10
0.1499999999999994
 20
3.1605790991974922
 97
        1
330
15F
 75
     0
 76
     0
 98
        0
  0
LWPOLYLINE
  5
163
100
AcDbEntity
  8
0
  6
Continuous
 62
     7
100
AcDbPolyline
 90
        4
 70
     0
 10
2.45
 20
3.143912
 40
0.0
 41
0.0
 10
2.35
 20
3.160579
 40
0.0
 41
0.0
 10
2.35
 20
3.127246
 40
0.0
 41
0.0
 10
2.45
 20
3.143912
 40
0.0
 41
0.0
  0
HATCH
  5
161
100
AcDbEntity
  8
0
  6
Continuous
 62
     7
100
AcDbHatch
 10
0.0
 20
0.0
 30
0.0
210
0.0
220
0.0
230
1.0
  2
SOLID
 70
     1
 71
     1
 91
        1
 92
        3
 72
     0
 73
     1
 93
        3
 10
2.4499999999999997
 20
3.1439124325308256
 10
2.3499999999999996
 20
3.1605790991974922
 10
2.3499999999999996
 20
3.127245765864159
 97
        1
330
162
 75
     0
 76
     0
 98
        0
  0
TEXT
  5
164
100
AcDbEntity
  8
0
  6
Continuous
 62
     7
100
AcDbText
 10
1.066461
 20
3.105718
 30
0.0
 40
0.079861
  1
2.400
 72
     1
 11
1.206458
 21
3.145649
 31
0.0
100
AcDbText
 73
     2
  0
TEXT
  5
165
100
AcDbEntity
  8
0
  6
Continuous
 62
     7
100
AcDbText
 10
1.346454
 20
3.105718
 30
0.0
 40
0.079861
  1
in
 11
1.346454
 21
3.185579
 31
0.0
100
AcDbText
 73
     3
  0
ENDBLK
  5
166
100
AcDbEntity
  8
0
100
AcDbBlockEnd
  0
BLOCK
  5
169
100
AcDbEntity
  8
0
100
AcDbBlockBegin
  2
*D16
 70
     1
 10
0.0
 20
0.0
 30
0.0
  3
*D16
  1

  0
LINE
  5
16A
100
AcDbEntity
  8
0
370
     0
  6
Continuous
 62
     7
100
AcDbLine
 10
2.45
 20
2.45
 30
0.0
 11
3.3839
 21
2.45
 31
0.0
  0
LINE
  5
16B
100
AcDbEntity
  8
0
370
     0
  6
Continuous
 62
     7
100
AcDbLine
 10
2.45
 20
0.05
 30
0.0
 11
3.3839
 21
0.05
 31
0.0
  0
LWPOLYLINE
  5
16C
100
AcDbEntity
  8
0
  6
Continuous
 62
     7
100
AcDbPolyline
 90
        4
 70
     0
 10
3.3839
 20
2.35
 10
3.3839
 20
2.35
 10
3.3839
 20
2.35
 10
3.3839
 20
1.325
  0
LWPOLYLINE
  5
16D
100
AcDbEntity
  8
0
  6
Continuous
 62
     7
100
AcDbPolyline
 90
        4
 70
     0
 10
3.3839
 20
0.15
 10
3.3839
 20
0.15
 10
3.3839
 20
0.15
 10
3.3839
 20
1.175
  0
LWPOLYLINE
  5
170
100
AcDbEntity
  8
0
  6
Continuous
 62
     7
100
AcDbPolyline
 90
        4
 70
     0
 10
3.3839
 20
2.45
 40
0.0
 41
0.0
 10
3.367234
 20
2.35
 40
0.0
 41
0.0
 10
3.400567
 20
2.35
 40
0.0
 41
0.0
 10
3.3839
 20
2.45
 40
0.0
 41
0.0
  0
HATCH
  5
16E
100
AcDbEntity
  8
0
  6
Continuous
 62
     7
100
AcDbHatch
 10
0.0
 20
0.0
 30
0.0
210
0.0
220
0.0
230
1.0
  2
SOLID
 70
     1
 71
     1
 91
        1
 92
        3
 72
     0
 73
     1
 93
        3
 10
3.3839003448460665
 20
2.4499999999999997
 10
3.3672336781793999
 20
2.3499999999999996
 10
3.4005670115127331
 20
2.3499999999999996
 97
        1
330
16F
 75
     0
 76
     0
 98
        0
  0
LWPOLYLINE
  5
173
100
AcDbEntity
  8
0
  6
Continuous
 62
     7
100
AcDbPolyline
 90
        4
 70
     0
 10
3.3839
 20
0.05
 40
0.0
 41
0.0
 10
3.400567
 20
0.15
 40
0.0
 41
0.0
 10
3.367234
 20
0.15
 40
0.0
 41
0.0
 10
3.3839
 20
0.05
 40
0.0
 41
0.0
  0
HATCH
  5
171
100
AcDbEntity
  8
0
  6
Continuous
 62
     7
100
AcDbHatch
 10
0.0
 20
0.0
 30
0.0
210
0.0
220
0.0
230
1.0
  2
SOLID
 70
     1
 71
     1
 91
        1
 92
        3
 72
     0
 73
     1
 93
        3
 10
3.3839003448460656
 20
0.0500000000000003
 10
3.4005670115127322
 20
0.1500000000000003
 10
3.367233678179399
 20
0.1500000000000003
 97
        1
330
172
 75
     0
 76
     0
 98
        0
  0
TEXT
  5
174
100
AcDbEntity
  8
0
  6
Continuous
 62
     7
100
AcDbText
 10
3.200361
 20
1.211806
 30
0.0
 40
0.079861
  1
2.400
 72
     1
 11
3.340358
 21
1.251736
 31
0.0
100
AcDbText
 73
     2
  0
TEXT
  5
175
100
AcDbEntity
  8
0
  6
Continuous
 62
     7
100
AcDbText
 10
3.480355
 20
1.211806
 30
0.0
 40
0.079861
  1
in
 11
3.480355
 21
1.291667
 31
0.0
100
AcDbText
 73
     3
  0
ENDBLK
  5
176
100
AcDbEntity
  8
0
100
AcDbBlockEnd
  0
BLOCK
  5
179
100
AcDbEntity
  8
0
100
AcDbBlockBegin
  2
*D17
 70
     1
 10
0.0
 20
0.0
 30
0.0
  3
*D17
  1

  0
LINE
  5
17A
100
AcDbEntity
  8
0
370
     0
  6
Continuous
 62
     7
100
AcDbLine
 10
1.878911
 20
0.6375
 30
0.0
 11
2.57376
 21
0.6375
 31
0.0
  0
LINE
  5
17B
100
AcDbEntity
  8
0
370
     0
  6
Continuous
 62
     7
100
AcDbLine
 10
2.1875
 20
0.3125
 30
0.0
 11
2.57376
 21
0.3125
 31
0.0
  0
LWPOLYLINE
  5
17C
100
AcDbEntity
  8
0
  6
Continuous
 62
     7
100
AcDbPolyline
 90
        2
 70
     0
 10
2.57376
 20
0.8375
 10
2.57376
 20
0.7375
  0
LWPOLYLINE
  5
17D
100
AcDbEntity
  8
0
  6
Continuous
 62
     7
100
AcDbPolyline
 90
        2
 70
     0
 10
2.57376
 20
0.7375
 40
0.0
 41
0.0
 10
2.57376
 20
0.7375
 40
0.0
 41
0.0
  0
LWPOLYLINE
  5
17E
100
AcDbEntity
  8
0
  6
Continuous
 62
     7
100
AcDbPolyline
 90
        4
 70
     0
 10
2.67376
 20
0.1125
 10
2.57376
 20
0.1125
 10
2.57376
 20
0.2125
 10
2.57376
 20
0.2125
  0
LWPOLYLINE
  5
181
100
AcDbEntity
  8
0
  6
Continuous
 62
     7
100
AcDbPolyline
 90
        4
 70
     0
 10
2.57376
 20
0.3125
 40
0.0
 41
0.0
 10
2.557093
 20
0.2125
 40
0.0
 41
0.0
 10
2.590427
 20
0.2125
 40
0.0
 41
0.0
 10
2.57376
 20
0.3125
 40
0.0
 41
0.0
  0
HATCH
  5
17F
100
AcDbEntity
  8
0
  6
Continuous
 62
     7
100
AcDbHatch
 10
0.0
 20
0.0
 30
0.0
210
0.0
220
0.0
230
1.0
  2
SOLID
 70
     1
 71
     1
 91
        1
 92
        3
 72
     0
 73
     1
 93
        3
 10
2.5737599425846334
 20
0.3124999999999999
 10
2.5570932759179668
 20
0.2124999999999999
 10
2.5904266092513
 20
0.2124999999999999
 97
        1
330
180
 75
     0
 76
     0
 98
        0
  0
LWPOLYLINE
  5
184
100
AcDbEntity
  8
0
  6
Continuous
 62
     7
100
AcDbPolyline
 90
        4
 70
     0
 10
2.57376
 20
0.6375
 40
0.0
 41
0.0
 10
2.590427
 20
0.7375
 40
0.0
 41
0.0
 10
2.557093
 20
0.7375
 40
0.0
 41
0.0
 10
2.57376
 20
0.6375
 40
0.0
 41
0.0
  0
HATCH
  5
182
100
AcDbEntity
  8
0
  6
Continuous
 62
     7
100
AcDbHatch
 10
0.0
 20
0.0
 30
0.0
210
0.0
220
0.0
230
1.0
  2
SOLID
 70
     1
 71
     1
 91
        1
 92
        3
 72
     0
 73
     1
 93
        3
 10
2.5737599425846334
 20
0.6375000000000048
 10
2.5904266092513
 20
0.7375000000000048
 10
2.5570932759179668
 20
0.7375000000000048
 97
        1
330
183
 75
     0
 76
     0
 98
        0
  0
TEXT
  5
185
100
AcDbEntity
  8
0
  6
Continuous
 62
     7
100
AcDbText
 10
2.87376
 20
0.074306
 30
0.0
 40
0.079861
  1
0.325
 72
     1
 11
3.013756
 21
0.114236
 31
0.0
100
AcDbText
 73
     2
  0
TEXT
  5
186
100
AcDbEntity
  8
0
  6
Continuous
 62
     7
100
AcDbText
 10
3.153753
 20
0.074306
 30
0.0
 40
0.079861
  1
in
 11
3.153753
 21
0.154167
 31
0.0
100
AcDbText
 73
     3
  0
ENDBLK
  5
187
100
AcDbEntity
  8
0
100
AcDbBlockEnd
  0
BLOCK
  5
18A
100
AcDbEntity
  8
0
100
AcDbBlockBegin
  2
*D18
 70
     1
 10
0.0
 20
0.0
 30
0.0
  3
*D18
  1

  0
LINE
  5
18B
100
AcDbEntity
  8
0
370
     0
  6
Continuous
 62
     7
100
AcDbLine
 10
1.253911
 20
0.65
 30
0.0
 11
0.936612
 21
0.65
 31
0.0
  0
LINE
  5
18C
100
AcDbEntity
  8
0
370
     0
  6
Continuous
 62
     7
100
AcDbLine
 10
2.1875
 20
0.3125
 30
0.0
 11
0.936612
 21
0.3125
 31
0.0
  0
LWPOLYLINE
  5
18D
100
AcDbEntity
  8
0
  6
Continuous
 62
     7
100
AcDbPolyline
 90
        2
 70
     0
 10
0.936612
 20
0.85
 10
0.936612
 20
0.75
  0
LWPOLYLINE
  5
18E
100
AcDbEntity
  8
0
  6
Continuous
 62
     7
100
AcDbPolyline
 90
        2
 70
     0
 10
0.936612
 20
0.75
 40
0.0
 41
0.0
 10
0.936612
 20
0.75
 40
0.0
 41
0.0
  0
LWPOLYLINE
  5
18F
100
AcDbEntity
  8
0
  6
Continuous
 62
     7
100
AcDbPolyline
 90
        4
 70
     0
 10
1.036612
 20
0.1125
 10
0.936612
 20
0.1125
 10
0.936612
 20
0.2125
 10
0.936612
 20
0.2125
  0
LWPOLYLINE
  5
192
100
AcDbEntity
  8
0
  6
Continuous
 62
     7
100
AcDbPolyline
 90
        4
 70
     0
 10
0.936612
 20
0.3125
 40
0.0
 41
0.0
 10
0.919945
 20
0.2125
 40
0.0
 41
0.0
 10
0.953278
 20
0.2125
 40
0.0
 41
0.0
 10
0.936612
 20
0.3125
 40
0.0
 41
0.0
  0
HATCH
  5
190
100
AcDbEntity
  8
0
  6
Continuous
 62
     7
100
AcDbHatch
 10
0.0
 20
0.0
 30
0.0
210
0.0
220
0.0
230
1.0
  2
SOLID
 70
     1
 71
     1
 91
        1
 92
        3
 72
     0
 73
     1
 93
        3
 10
0.9366115483863672
 20
0.3124999999999999
 10
0.9199448817197005
 20
0.2124999999999999
 10
0.9532782150530339
 20
0.2124999999999999
 97
        1
330
191
 75
     0
 76
     0
 98
        0
  0
LWPOLYLINE
  5
195
100
AcDbEntity
  8
0
  6
Continuous
 62
     7
100
AcDbPolyline
 90
        4
 70
     0
 10
0.936612
 20
0.65
 40
0.0
 41
0.0
 10
0.953278
 20
0.75
 40
0.0
 41
0.0
 10
0.919945
 20
0.75
 40
0.0
 41
0.0
 10
0.936612
 20
0.65
 40
0.0
 41
0.0
  0
HATCH
  5
193
100
AcDbEntity
  8
0
  6
Continuous
 62
     7
100
AcDbHatch
 10
0.0
 20
0.0
 30
0.0
210
0.0
220
0.0
230
1.0
  2
SOLID
 70
     1
 71
     1
 91
        1
 92
        3
 72
     0
 73
     1
 93
        3
 10
0.9366115483863672
 20
0.65
 10
0.9532782150530339
 20
0.75
 10
0.9199448817197005
 20
0.75
 97
        1
330
194
 75
     0
 76
     0
 98
        0
  0
TEXT
  5
196
100
AcDbEntity
  8
0
  6
Continuous
 62
     7
100
AcDbText
 10
1.236612
 20
0.074306
 30
0.0
 40
0.079861
  1
0.338
 72
     1
 11
1.376608
 21
0.114236
 31
0.0
100
AcDbText
 73
     2
  0
TEXT
  5
197
100
AcDbEntity
  8
0
  6
Continuous
 62
     7
100
AcDbText
 10
1.516605
 20
0.074306
 30
0.0
 40
0.079861
  1
in
 11
1.516605
 21
0.154167
 31
0.0
100
AcDbText
 73
     3
  0
ENDBLK
  5
198
100
AcDbEntity
  8
0
100
AcDbBlockEnd
  0
BLOCK
  5
19C
100
AcDbEntity
  8
0
100
AcDbBlockBegin
  2
*D19
 70
     1
 10
0.0
 20
0.0
 30
0.0
  3
*D19
  1

  0
TEXT
  5
19D
100
AcDbEntity
  8
0
  6
Continuous
 62
     7
100
AcDbText
 10
0.763087
 20
0.404235
 30
0.0
 40
0.061972
  1
R0.098
 72
     1
 11
0.903076
 21
0.435221
 31
0.0
100
AcDbText
 73
     2
  0
LWPOLYLINE
  5
19E
100
AcDbEntity
  8
0
  6
Continuous
 62
     7
100
AcDbPolyline
 90
        3
 70
     0
 10
0.629097
 20
0.635936
 40
0.0
 41
0.0
 10
0.653087
 20
0.433874
 40
0.0
 41
0.0
 10
0.753087
 20
0.433874
 40
0.0
 41
0.0
  0
LWPOLYLINE
  5
1A1
100
AcDbEntity
  8
0
  6
Continuous
 62
     7
100
AcDbPolyline
 90
        4
 70
     0
 10
0.617307
 20
0.735239
 40
0.0
 41
0.0
 10
0.612546
 20
0.633971
 40
0.0
 41
0.0
 10
0.645647
 20
0.637901
 40
0.0
 41
0.0
 10
0.617307
 20
0.735239
 40
0.0
 41
0.0
  0
HATCH
  5
19F
100
AcDbEntity
  8
0
  6
Continuous
 62
     7
100
AcDbHatch
 10
0.0
 20
0.0
 30
0.0
210
0.0
220
0.0
230
1.0
  2
SOLID
 70
     1
 71
     1
 91
        1
 92
        3
 72
     0
 73
     1
 93
        3
 10
0.6173066653839324
 20
0.7352385289592603
 10
0.6125462689292978
 20
0.6339709803399101
 10
0.6456471169385267
 20
0.6379009895232366
 97
        1
330
1A0
 75
     0
 76
     0
 98
        0
  0
TEXT
  5
1A2
100
AcDbEntity
  8
0
  6
Continuous
 62
     7
100
AcDbText
 10
1.043064
 20
0.404235
 30
0.0
 40
0.061972
  1
in
 11
1.043064
 21
0.466207
 31
0.0
100
AcDbText
 73
     3
  0
ENDBLK
  5
1A3
100
AcDbEntity
  8
0
100
AcDbBlockEnd
  0
BLOCK
  5
1A6
100
AcDbEntity
  8
0
100
AcDbBlockBegin
  2
*D20
 70
     1
 10
0.0
 20
0.0
 30
0.0
  3
*D20
  1

  0
TEXT
  5
1A7
100
AcDbEntity
  8
0
  6
Continuous
 62
     7
100
AcDbText
 10
1.459619
 20
0.43797
 30
0.0
 40
0.061972
  1
R0.145
 72
     1
 11
1.599608
 21
0.468956
 31
0.0
100
AcDbText
 73
     2
  0
LWPOLYLINE
  5
1A8
100
AcDbEntity
  8
0
  6
Continuous
 62
     7
100
AcDbPolyline
 90
        3
 70
     0
 10
1.233002
 20
0.689847
 40
0.0
 41
0.0
 10
1.349619
 20
0.467609
 40
0.0
 41
0.0
 10
1.449619
 20
0.467609
 40
0.0
 41
0.0
  0
LWPOLYLINE
  5
1AB
100
AcDbEntity
  8
0
  6
Continuous
 62
     7
100
AcDbPolyline
 90
        4
 70
     0
 10
1.186536
 20
0.778396
 40
0.0
 41
0.0
 10
1.218243
 20
0.682103
 40
0.0
 41
0.0
 10
1.24776
 20
0.697591
 40
0.0
 41
0.0
 10
1.186536
 20
0.778396
 40
0.0
 41
0.0
  0
HATCH
  5
1A9
100
AcDbEntity
  8
0
  6
Continuous
 62
     7
100
AcDbHatch
 10
0.0
 20
0.0
 30
0.0
210
0.0
220
0.0
230
1.0
  2
SOLID
 70
     1
 71
     1
 91
        1
 92
        3
 72
     0
 73
     1
 93
        3
 10
1.1865359617333933
 20
0.7783962780557644
 10
1.2182433124855629
 20
0.6821028635039028
 10
1.2477596982455088
 20
0.6975913780479504
 97
        1
330
1AA
 75
     0
 76
     0
 98
        0
  0
TEXT
  5
1AC
100
AcDbEntity
  8
0
  6
Continuous
 62
     7
100
AcDbText
 10
1.739597
 20
0.43797
 30
0.0
 40
0.061972
  1
in
 11
1.739597
 21
0.499942
 31
0.0
100
AcDbText
 73
     3
  0
ENDBLK
  5
1AD
100
AcDbEntity
  8
0
100
AcDbBlockEnd
  0
BLOCK
  5
1B3
100
AcDbEntity
  8
0
100
AcDbBlockBegin
  2
*D21
 70
     1
 10
0.0
 20
0.0
 30
0.0
  3
*D21
  1

  0
LINE
  5
1B4
100
AcDbEntity
  8
0
370
     0
  6
Continuous
 62
     7
100
AcDbLine
 10
0.717598
 20
2.150813
 30
0.0
 11
0.717598
 21
2.24714
 31
0.0
  0
LINE
  5
1B5
100
AcDbEntity
  8
0
370
     0
  6
Continuous
 62
     7
100
AcDbLine
 10
1.787402
 20
2.155813
 30
0.0
 11
1.787402
 21
2.24714
 31
0.0
  0
LWPOLYLINE
  5
1B6
100
AcDbEntity
  8
0
  6
Continuous
 62
     7
100
AcDbPolyline
 90
        4
 70
     0
 10
0.817598
 20
2.24714
 10
0.817598
 20
2.24714
 10
0.817598
 20
2.24714
 10
1.100374
 20
2.24714
  0
LWPOLYLINE
  5
1B7
100
AcDbEntity
  8
0
  6
Continuous
 62
     7
100
AcDbPolyline
 90
        4
 70
     0
 10
1.687402
 20
2.24714
 10
1.687402
 20
2.24714
 10
1.687402
 20
2.24714
 10
1.404626
 20
2.24714
  0
LWPOLYLINE
  5
1BA
100
AcDbEntity
  8
0
  6
Continuous
 62
     7
100
AcDbPolyline
 90
        4
 70
     0
 10
0.717598
 20
2.24714
 40
0.0
 41
0.0
 10
0.817598
 20
2.230473
 40
0.0
 41
0.0
 10
0.817598
 20
2.263806
 40
0.0
 41
0.0
 10
0.717598
 20
2.24714
 40
0.0
 41
0.0
  0
HATCH
  5
1B8
100
AcDbEntity
  8
0
  6
Continuous
 62
     7
100
AcDbHatch
 10
0.0
 20
0.0
 30
0.0
210
0.0
220
0.0
230
1.0
  2
SOLID
 70
     1
 71
     1
 91
        1
 92
        3
 72
     0
 73
     1
 93
        3
 10
0.7175979998882409
 20
2.2471395943668049
 10
0.8175979998882409
 20
2.2304729277001383
 10
0.8175979998882409
 20
2.2638062610334715
 97
        1
330
1B9
 75
     0
 76
     0
 98
        0
  0
LWPOLYLINE
  5
1BD
100
AcDbEntity
  8
0
  6
Continuous
 62
     7
100
AcDbPolyline
 90
        4
 70
     0
 10
1.787402
 20
2.24714
 40
0.0
 41
0.0
 10
1.687402
 20
2.263806
 40
0.0
 41
0.0
 10
1.687402
 20
2.230473
 40
0.0
 41
0.0
 10
1.787402
 20
2.24714
 40
0.0
 41
0.0
  0
HATCH
  5
1BB
100
AcDbEntity
  8
0
  6
Continuous
 62
     7
100
AcDbHatch
 10
0.0
 20
0.0
 30
0.0
210
0.0
220
0.0
230
1.0
  2
SOLID
 70
     1
 71
     1
 91
        1
 92
        3
 72
     0
 73
     1
 93
        3
 10
1.7874019999999999
 20
2.2471395943668049
 10
1.6874019999999998
 20
2.2638062610334715
 10
1.6874019999999998
 20
2.2304729277001383
 97
        1
330
1BC
 75
     0
 76
     0
 98
        0
  0
TEXT
  5
1BE
100
AcDbEntity
  8
0
  6
Continuous
 62
     7
100
AcDbText
 10
1.110074
 20
2.217501
 30
0.0
 40
0.061972
  1
1.070
 72
     1
 11
1.218711
 21
2.248487
 31
0.0
100
AcDbText
 73
     2
  0
TEXT
  5
1BF
100
AcDbEntity
  8
0
  6
Continuous
 62
     7
100
AcDbText
 10
1.327349
 20
2.217501
 30
0.0
 40
0.061972
  1
in
 11
1.327349
 21
2.279473
 31
0.0
100
AcDbText
 73
     3
  0
ENDBLK
  5
1C0
100
AcDbEntity
  8
0
100
AcDbBlockEnd
  0
BLOCK
  5
1C3
100
AcDbEntity
  8
0
100
AcDbBlockBegin
  2
*D22
 70
     1
 10
0.0
 20
0.0
 30
0.0
  3
*D22
  1

  0
LINE
  5
1C4
100
AcDbEntity
  8
0
370
     0
  6
Continuous
 62
     7
100
AcDbLine
 10
0.453911
 20
0.95
 30
0.0
 11
0.453911
 21
1.079307
 31
0.0
  0
LINE
  5
1C5
100
AcDbEntity
  8
0
370
     0
  6
Continuous
 62
     7
100
AcDbLine
 10
2.053911
 20
0.95
 30
0.0
 11
2.053911
 21
1.079307
 31
0.0
  0
LWPOLYLINE
  5
1C6
100
AcDbEntity
  8
0
  6
Continuous
 62
     7
100
AcDbPolyline
 90
        4
 70
     0
 10
0.553911
 20
1.079307
 10
0.553911
 20
1.079307
 10
0.553911
 20
1.079307
 10
1.101785
 20
1.079307
  0
LWPOLYLINE
  5
1C7
100
AcDbEntity
  8
0
  6
Continuous
 62
     7
100
AcDbPolyline
 90
        4
 70
     0
 10
1.953911
 20
1.079307
 10
1.953911
 20
1.079307
 10
1.953911
 20
1.079307
 10
1.406037
 20
1.079307
  0
LWPOLYLINE
  5
1CA
100
AcDbEntity
  8
0
  6
Continuous
 62
     7
100
AcDbPolyline
 90
        4
 70
     0
 10
0.453911
 20
1.079307
 40
0.0
 41
0.0
 10
0.553911
 20
1.06264
 40
0.0
 41
0.0
 10
0.553911
 20
1.095974
 40
0.0
 41
0.0
 10
0.453911
 20
1.079307
 40
0.0
 41
0.0
  0
HATCH
  5
1C8
100
AcDbEntity
  8
0
  6
Continuous
 62
     7
100
AcDbHatch
 10
0.0
 20
0.0
 30
0.0
210
0.0
220
0.0
230
1.0
  2
SOLID
 70
     1
 71
     1
 91
        1
 92
        3
 72
     0
 73
     1
 93
        3
 10
0.453911
 20
1.0793070731726209
 10
0.5539109999999999
 20
1.0626404065059543
 10
0.5539109999999999
 20
1.0959737398392875
 97
        1
330
1C9
 75
     0
 76
     0
 98
        0
  0
LWPOLYLINE
  5
1CD
100
AcDbEntity
  8
0
  6
Continuous
 62
     7
100
AcDbPolyline
 90
        4
 70
     0
 10
2.053911
 20
1.079307
 40
0.0
 41
0.0
 10
1.953911
 20
1.095974
 40
0.0
 41
0.0
 10
1.953911
 20
1.06264
 40
0.0
 41
0.0
 10
2.053911
 20
1.079307
 40
0.0
 41
0.0
  0
HATCH
  5
1CB
100
AcDbEntity
  8
0
  6
Continuous
 62
     7
100
AcDbHatch
 10
0.0
 20
0.0
 30
0.0
210
0.0
220
0.0
230
1.0
  2
SOLID
 70
     1
 71
     1
 91
        1
 92
        3
 72
     0
 73
     1
 93
        3
 10
2.0539110000000003
 20
1.0793070731726209
 10
1.9539110000000002
 20
1.0959737398392875
 10
1.9539110000000002
 20
1.0626404065059543
 97
        1
330
1CC
 75
     0
 76
     0
 98
        0
  0
TEXT
  5
1CE
100
AcDbEntity
  8
0
  6
Continuous
 62
     7
100
AcDbText
 10
1.111485
 20
1.049668
 30
0.0
 40
0.061972
  1
1.600
 72
     1
 11
1.220122
 21
1.080654
 31
0.0
100
AcDbText
 73
     2
  0
TEXT
  5
1CF
100
AcDbEntity
  8
0
  6
Continuous
 62
     7
100
AcDbText
 10
1.32876
 20
1.049668
 30
0.0
 40
0.061972
  1
in
 11
1.32876
 21
1.11164
 31
0.0
100
AcDbText
 73
     3
  0
ENDBLK
  5
1D0
100
AcDbEntity
  8
0
100
AcDbBlockEnd
  0
BLOCK
  5
1D3
100
AcDbEntity
  8
0
100
AcDbBlockBegin
  2
*D23
 70
     1
 10
0.0
 20
0.0
 30
0.0
  3
*D23
  1

  0
LINE
  5
1D4
100
AcDbEntity
  8
0
370
     0
  6
Continuous
 62
     7
100
AcDbLine
 10
2.053911
 20
0.95
 30
0.0
 11
2.170674
 21
0.95
 31
0.0
  0
LINE
  5
1D5
100
AcDbEntity
  8
0
370
     0
  6
Continuous
 62
     7
100
AcDbLine
 10
2.053911
 20
1.925
 30
0.0
 11
2.170674
 21
1.925
 31
0.0
  0
LWPOLYLINE
  5
1D6
100
AcDbEntity
  8
0
  6
Continuous
 62
     7
100
AcDbPolyline
 90
        4
 70
     0
 10
2.170674
 20
1.05
 10
2.170674
 20
1.05
 10
2.170674
 20
1.05
 10
2.170674
 20
1.3793
  0
LWPOLYLINE
  5
1D7
100
AcDbEntity
  8
0
  6
Continuous
 62
     7
100
AcDbPolyline
 90
        4
 70
     0
 10
2.170674
 20
1.825
 10
2.170674
 20
1.825
 10
2.170674
 20
1.825
 10
2.170674
 20
1.4957
  0
LWPOLYLINE
  5
1DA
100
AcDbEntity
  8
0
  6
Continuous
 62
     7
100
AcDbPolyline
 90
        4
 70
     0
 10
2.170674
 20
0.95
 40
0.0
 41
0.0
 10
2.187341
 20
1.05
 40
0.0
 41
0.0
 10
2.154007
 20
1.05
 40
0.0
 41
0.0
 10
2.170674
 20
0.95
 40
0.0
 41
0.0
  0
HATCH
  5
1D8
100
AcDbEntity
  8
0
  6
Continuous
 62
     7
100
AcDbHatch
 10
0.0
 20
0.0
 30
0.0
210
0.0
220
0.0
230
1.0
  2
SOLID
 70
     1
 71
     1
 91
        1
 92
        3
 72
     0
 73
     1
 93
        3
 10
2.1706741637545508
 20
0.95
 10
2.1873408304212174
 20
1.05
 10
2.1540074970878842
 20
1.05
 97
        1
330
1D9
 75
     0
 76
     0
 98
        0
  0
LWPOLYLINE
  5
1DD
100
AcDbEntity
  8
0
  6
Continuous
 62
     7
100
AcDbPolyline
 90
        4
 70
     0
 10
2.170674
 20
1.925
 40
0.0
 41
0.0
 10
2.154007
 20
1.825
 40
0.0
 41
0.0
 10
2.187341
 20
1.825
 40
0.0
 41
0.0
 10
2.170674
 20
1.925
 40
0.0
 41
0.0
  0
HATCH
  5
1DB
100
AcDbEntity
  8
0
  6
Continuous
 62
     7
100
AcDbHatch
 10
0.0
 20
0.0
 30
0.0
210
0.0
220
0.0
230
1.0
  2
SOLID
 70
     1
 71
     1
 91
        1
 92
        3
 72
     0
 73
     1
 93
        3
 10
2.1706741637545508
 20
1.925
 10
2.1540074970878842
 20
1.825
 10
2.1873408304212174
 20
1.825
 97
        1
330
1DC
 75
     0
 76
     0
 98
        0
  0
TEXT
  5
1DE
100
AcDbEntity
  8
0
  6
Continuous
 62
     7
100
AcDbText
 10
2.028248
 20
1.407861
 30
0.0
 40
0.061972
  1
0.975
 72
     1
 11
2.136885
 21
1.438847
 31
0.0
100
AcDbText
 73
     2
  0
TEXT
  5
1DF
100
AcDbEntity
  8
0
  6
Continuous
 62
     7
100
AcDbText
 10
2.245523
 20
1.407861
 30
0.0
 40
0.061972
  1
in
 11
2.245523
 21
1.469833
 31
0.0
100
AcDbText
 73
     3
  0
ENDBLK
  5
1E0
100
AcDbEntity
  8
0
100
AcDbBlockEnd
  0
BLOCK
  5
1E3
100
AcDbEntity
  8
0
100
AcDbBlockBegin
  2
*D24
 70
     1
 10
0.0
 20
0.0
 30
0.0
  3
*D24
  1

  0
LINE
  5
1E4
100
AcDbEntity
  8
0
370
     0
  6
Continuous
 62
     7
100
AcDbLine
 10
0.3125
 20
0.3125
 30
0.0
 11
-0.305885
 21
0.3125
 31
0.0
  0
LINE
  5
1E5
100
AcDbEntity
  8
0
370
     0
  6
Continuous
 62
     7
100
AcDbLine
 10
0.453911
 20
0.95
 30
0.0
 11
-0.305885
 21
0.95
 31
0.0
  0
LWPOLYLINE
  5
1E6
100
AcDbEntity
  8
0
  6
Continuous
 62
     7
100
AcDbPolyline
 90
        4
 70
     0
 10
-0.305885
 20
0.4125
 10
-0.305885
 20
0.4125
 10
-0.305885
 20
0.4125
 10
-0.305885
 20
0.57305
  0
LWPOLYLINE
  5
1E7
100
AcDbEntity
  8
0
  6
Continuous
 62
     7
100
AcDbPolyline
 90
        4
 70
     0
 10
-0.305885
 20
0.85
 10
-0.305885
 20
0.85
 10
-0.305885
 20
0.85
 10
-0.305885
 20
0.68945
  0
LWPOLYLINE
  5
1EA
100
AcDbEntity
  8
0
  6
Continuous
 62
     7
100
AcDbPolyline
 90
        4
 70
     0
 10
-0.305885
 20
0.3125
 40
0.0
 41
0.0
 10
-0.289218
 20
0.4125
 40
0.0
 41
0.0
 10
-0.322552
 20
0.4125
 40
0.0
 41
0.0
 10
-0.305885
 20
0.3125
 40
0.0
 41
0.0
  0
HATCH
  5
1E8
100
AcDbEntity
  8
0
  6
Continuous
 62
     7
100
AcDbHatch
 10
0.0
 20
0.0
 30
0.0
210
0.0
220
0.0
230
1.0
  2
SOLID
 70
     1
 71
     1
 91
        1
 92
        3
 72
     0
 73
     1
 93
        3
 10
-0.3058848617031384
 20
0.3125000000000002
 10
-0.2892181950364718
 20
0.4125000000000002
 10
-0.3225515283698051
 20
0.4125000000000002
 97
        1
330
1E9
 75
     0
 76
     0
 98
        0
  0
LWPOLYLINE
  5
1ED
100
AcDbEntity
  8
0
  6
Continuous
 62
     7
100
AcDbPolyline
 90
        4
 70
     0
 10
-0.305885
 20
0.95
 40
0.0
 41
0.0
 10
-0.322552
 20
0.85
 40
0.0
 41
0.0
 10
-0.289218
 20
0.85
 40
0.0
 41
0.0
 10
-0.305885
 20
0.95
 40
0.0
 41
0.0
  0
HATCH
  5
1EB
100
AcDbEntity
  8
0
  6
Continuous
 62
     7
100
AcDbHatch
 10
0.0
 20
0.0
 30
0.0
210
0.0
220
0.0
230
1.0
  2
SOLID
 70
     1
 71
     1
 91
        1
 92
        3
 72
     0
 73
     1
 93
        3
 10
-0.3058848617031383
 20
0.9500000000000001
 10
-0.322551528369805
 20
0.8500000000000001
 10
-0.2892181950364717
 20
0.8500000000000001
 97
        1
330
1EC
 75
     0
 76
     0
 98
        0
  0
TEXT
  5
1EE
100
AcDbEntity
  8
0
  6
Continuous
 62
     7
100
AcDbText
 10
-0.448311
 20
0.601611
 30
0.0
 40
0.061972
  1
0.637
 72
     1
 11
-0.339674
 21
0.632597
 31
0.0
100
AcDbText
 73
     2
  0
TEXT
  5
1EF
100
AcDbEntity
  8
0
  6
Continuous
 62
     7
100
AcDbText
 10
-0.231036
 20
0.601611
 30
0.0
 40
0.061972
  1
in
 11
-0.231036
 21
0.663583
 31
0.0
100
AcDbText
 73
     3
  0
ENDBLK
  5
1F0
100
AcDbEntity
  8
0
100
AcDbBlockEnd
  0
BLOCK
  5
1F4
100
AcDbEntity
  8
0
100
AcDbBlockBegin
  2
*D25
 70
     1
 10
0.0
 20
0.0
 30
0.0
  3
*D25
  1

  0
TEXT
  5
1F5
100
AcDbEntity
  8
0
  6
Continuous
 62
     7
100
AcDbText
 10
2.607608
 20
2.285467
 30
0.0
 40
0.061972
  1
R0.060
 72
     1
 11
2.747596
 21
2.316453
 31
0.0
100
AcDbText
 73
     2
  0
LWPOLYLINE
  5
1F6
100
AcDbEntity
  8
0
  6
Continuous
 62
     7
100
AcDbPolyline
 90
        3
 70
     0
 10
2.335463
 20
2.248385
 40
0.0
 41
0.0
 10
2.497608
 20
2.315106
 40
0.0
 41
0.0
 10
2.597608
 20
2.315106
 40
0.0
 41
0.0
  0
LWPOLYLINE
  5
1F9
100
AcDbEntity
  8
0
  6
Continuous
 62
     7
100
AcDbPolyline
 90
        4
 70
     0
 10
2.242986
 20
2.210332
 40
0.0
 41
0.0
 10
2.341805
 20
2.232972
 40
0.0
 41
0.0
 10
2.329121
 20
2.263798
 40
0.0
 41
0.0
 10
2.242986
 20
2.210332
 40
0.0
 41
0.0
  0
HATCH
  5
1F7
100
AcDbEntity
  8
0
  6
Continuous
 62
     7
100
AcDbHatch
 10
0.0
 20
0.0
 30
0.0
210
0.0
220
0.0
230
1.0
  2
SOLID
 70
     1
 71
     1
 91
        1
 92
        3
 72
     0
 73
     1
 93
        3
 10
2.2429860617692152
 20
2.2103319282878799
 10
2.3418050336867617
 20
2.2329723471651204
 10
2.329120629082384
 20
2.2637979370369066
 97
        1
330
1F8
 75
     0
 76
     0
 98
        0
  0
LWPOLYLINE
  5
1FA
100
AcDbEntity
  8
0
  6
Continuous
 62
     7
100
AcDbPolyline
 90
        2
 70
     0
 10
2.1375
 20
2.1875
 10
2.2375
 20
2.1875
  0
LWPOLYLINE
  5
1FB
100
AcDbEntity
  8
0
  6
Continuous
 62
     7
100
AcDbPolyline
 90
        2
 70
     0
 10
2.1875
 20
2.1375
 40
0.0
 41
0.0
 10
2.1875
 20
2.2375
 40
0.0
 41
0.0
  0
TEXT
  5
1FC
100
AcDbEntity
  8
0
  6
Continuous
 62
     7
100
AcDbText
 10
2.887585
 20
2.285467
 30
0.0
 40
0.061972
  1
in
 11
2.887585
 21
2.347439
 31
0.0
100
AcDbText
 73
     3
  0
ENDBLK
  5
1FD
100
AcDbEntity
  8
0
100
AcDbBlockEnd
  0
BLOCK
  5
200
100
AcDbEntity
  8
0
100
AcDbBlockBegin
  2
*D26
 70
     1
 10
0.0
 20
0.0
 30
0.0
  3
*D26
  1

  0
TEXT
  5
201
100
AcDbEntity
  8
0
  6
Continuous
 62
     7
100
AcDbText
 10
2.300361
 20
2.062504
 30
0.0
 40
0.061972
  1
R0.039
 72
     1
 11
2.44035
 21
2.09349
 31
0.0
100
AcDbText
 73
     2
  0
LWPOLYLINE
  5
202
100
AcDbEntity
  8
0
  6
Continuous
 62
     7
100
AcDbPolyline
 90
        3
 70
     0
 10
2.093565
 20
2.067031
 40
0.0
 41
0.0
 10
2.190361
 20
2.092143
 40
0.0
 41
0.0
 10
2.290361
 20
2.092143
 40
0.0
 41
0.0
  0
LWPOLYLINE
  5
205
100
AcDbEntity
  8
0
  6
Continuous
 62
     7
100
AcDbPolyline
 90
        4
 70
     0
 10
1.996769
 20
2.041919
 40
0.0
 41
0.0
 10
2.09775
 20
2.050898
 40
0.0
 41
0.0
 10
2.08938
 20
2.083164
 40
0.0
 41
0.0
 10
1.996769
 20
2.041919
 40
0.0
 41
0.0
  0
HATCH
  5
203
100
AcDbEntity
  8
0
  6
Continuous
 62
     7
100
AcDbHatch
 10
0.0
 20
0.0
 30
0.0
210
0.0
220
0.0
230
1.0
  2
SOLID
 70
     1
 71
     1
 91
        1
 92
        3
 72
     0
 73
     1
 93
        3
 10
1.9967694701146625
 20
2.041919425315545
 10
2.0977504395514259
 20
2.050898377893061
 10
2.0893799160432174
 20
2.0831636137872804
 97
        1
330
204
 75
     0
 76
     0
 98
        0
  0
LWPOLYLINE
  5
206
100
AcDbEntity
  8
0
  6
Continuous
 62
     7
100
AcDbPolyline
 90
        2
 70
     0
 10
1.908661
 20
2.032033
 10
2.008661
 20
2.032033
  0
LWPOLYLINE
  5
207
100
AcDbEntity
  8
0
  6
Continuous
 62
     7
100
AcDbPolyline
 90
        2
 70
     0
 10
1.958661
 20
1.982033
 40
0.0
 41
0.0
 10
1.958661
 20
2.082033
 40
0.0
 41
0.0
  0
TEXT
  5
208
100
AcDbEntity
  8
0
  6
Continuous
 62
     7
100
AcDbText
 10
2.580338
 20
2.062504
 30
0.0
 40
0.061972
  1
in
 11
2.580338
 21
2.124476
 31
0.0
100
AcDbText
 73
     3
  0
ENDBLK
  5
209
100
AcDbEntity
  8
0
100
AcDbBlockEnd
  0
ENDSEC
  0
SECTION
  2
ENTITIES
  0
CIRCLE
  5
5C
100
AcDbEntity
  8
raused
370
     0
  6
Continuous
100
AcDbCircle
 10
1.25
 20
1.25
 30
0.0
 40
1.12
  0
CIRCLE
  5
5D
100
AcDbEntity
  8
hole
370
     0
  6
Continuous
100
AcDbCircle
 10
0.3125
 20
2.1875
 30
0.0
 40
0.06
  0
CIRCLE
  5
5E
100
AcDbEntity
  8
hole
370
     0
  6
Continuous
100
AcDbCircle
 10
2.1875
 20
2.1875
 30
0.0
 40
0.06
  0
CIRCLE
  5
5F
100
AcDbEntity
  8
hole
370
     0
  6
Continuous
100
AcDbCircle
 10
0.3125
 20
0.3125
 30
0.0
 40
0.06
  0
CIRCLE
  5
60
100
AcDbEntity
  8
hole
370
     0
  6
Continuous
100
AcDbCircle
 10
2.1875
 20
0.3125
 30
0.0
 40
0.06
  0
CIRCLE
  5
61
100
AcDbEntity
  8
raused
370
     0
  6
Continuous
 62
     7
100
AcDbCircle
 10
1.253911
 20
0.65
 30
0.0
 40
0.295276
  0
CIRCLE
  5
62
100
AcDbEntity
  8
hole
370
   120
  6
Continuous
100
AcDbCircle
 10
0.628911
 20
0.6375
 30
0.0
 40
0.098425
1001
ACAD
1000
TCW40_DEV_WIDTH
1002
{
1040
0.047244
1002
}
  0
CIRCLE
  5
63
100
AcDbEntity
  8
raused
370
     0
  6
Continuous
 62
     7
100
AcDbCircle
 10
0.541339
 20
2.032033
 30
0.0
 40
0.03937
  0
CIRCLE
  5
64
100
AcDbEntity
  8
raused
370
     0
  6
Continuous
 62
     7
100
AcDbCircle
 10
1.958661
 20
2.032033
 30
0.0
 40
0.03937
  0
LWPOLYLINE
  5
65
100
AcDbEntity
  8
0
  6
Continuous
 62
     7
100
AcDbPolyline
 90
        4
 70
     1
 10
0.505906
 20
1.884395
 10
1.994094
 20
1.884395
 10
1.994094
 20
0.978883
 10
0.505906
 20
0.978883
  0
CIRCLE
  5
66
100
AcDbEntity
  8
raused
370
     0
  6
Continuous
 62
     7
100
AcDbCircle
 10
0.541339
 20
0.831246
 30
0.0
 40
0.035433
  0
CIRCLE
  5
67
100
AcDbEntity
  8
raused
370
     0
  6
Continuous
 62
     7
100
AcDbCircle
 10
1.958661
 20
0.831246
 30
0.0
 40
0.035433
  0
ARC
  5
68
100
AcDbEntity
  8
raused
370
     0
  6
Continuous
 62
     7
100
AcDbCircle
 10
0.541339
 20
0.831246
 30
0.0
 40
0.07874
100
AcDbArc
 50
180.0
 51
360.0
  0
ARC
  5
69
100
AcDbEntity
  8
raused
370
     0
  6
Continuous
 62
     7
100
AcDbCircle
 10
1.958661
 20
0.831246
 30
0.0
 40
0.07874
100
AcDbArc
 50
180.0
 51
360.0
  0
LINE
  5
6A
100
AcDbEntity
  8
0
370
     0
  6
Continuous
 62
     7
100
AcDbLine
 10
0.462598
 20
2.150143
 30
0.0
 11
2.037402
 21
2.150143
 31
0.0
  0
LINE
  5
6B
100
AcDbEntity
  8
0
370
     0
  6
Continuous
 62
     7
100
AcDbLine
 10
0.462598
 20
0.830493
 30
0.0
 11
0.462598
 21
2.150143
 31
0.0
  0
LINE
  5
6C
100
AcDbEntity
  8
0
370
     0
  6
Continuous
 62
     7
100
AcDbLine
 10
0.620079
 20
0.831246
 30
0.0
 11
0.620079
 21
0.978885
 31
0.0
  0
LINE
  5
6D
100
AcDbEntity
  8
0
370
     0
  6
Continuous
 62
     7
100
AcDbLine
 10
1.879921
 20
0.831246
 30
0.0
 11
1.879921
 21
0.978821
 31
0.0
  0
LINE
  5
6E
100
AcDbEntity
  8
0
370
     0
  6
Continuous
 62
     7
100
AcDbLine
 10
2.037402
 20
2.150143
 30
0.0
 11
2.037402
 21
0.831246
 31
0.0
  0
CIRCLE
  5
6F
100
AcDbEntity
  8
raused
370
     0
  6
Continuous
 62
     7
100
AcDbCircle
 10
1.253911
 20
2.07
 30
0.0
 40
0.008433
  0
CIRCLE
  5
70
100
AcDbEntity
  8
raused
370
     0
  6
Continuous
 62
     7
100
AcDbCircle
 10
1.253911
 20
1.97
 30
0.0
 40
0.008433
  0
CIRCLE
  5
71
100
AcDbEntity
  8
raused
370
     0
  6
Continuous
 62
     7
100
AcDbCircle
 10
1.353911
 20
2.07
 30
0.0
 40
0.008433
  0
CIRCLE
  5
72
100
AcDbEntity
  8
raused
370
     0
  6
Continuous
 62
     7
100
AcDbCircle
 10
1.353911
 20
1.97
 30
0.0
 40
0.008433
  0
CIRCLE
  5
73
100
AcDbEntity
  8
raused
370
     0
  6
Continuous
 62
     7
100
AcDbCircle
 10
1.453911
 20
2.07
 30
0.0
 40
0.008433
  0
CIRCLE
  5
74
100
AcDbEntity
  8
raused
370
     0
  6
Continuous
 62
     7
100
AcDbCircle
 10
1.453911
 20
1.97
 30
0.0
 40
0.008433
  0
CIRCLE
  5
75
100
AcDbEntity
  8
raused
370
     0
  6
Continuous
 62
     7
100
AcDbCircle
 10
1.553911
 20
2.07
 30
0.0
 40
0.008433
  0
CIRCLE
  5
76
100
AcDbEntity
  8
raused
370
     0
  6
Continuous
 62
     7
100
AcDbCircle
 10
1.553911
 20
1.97
 30
0.0
 40
0.008433
  0
CIRCLE
  5
77
100
AcDbEntity
  8
raused
370
     0
  6
Continuous
 62
     7
100
AcDbCircle
 10
1.153911
 20
2.07
 30
0.0
 40
0.008433
  0
CIRCLE
  5
78
100
AcDbEntity
  8
raused
370
     0
  6
Continuous
 62
     7
100
AcDbCircle
 10
1.153911
 20
1.97
 30
0.0
 40
0.008433
  0
CIRCLE
  5
79
100
AcDbEntity
  8
raused
370
     0
  6
Continuous
 62
     7
100
AcDbCircle
 10
1.053911
 20
2.07
 30
0.0
 40
0.008433
  0
CIRCLE
  5
7A
100
AcDbEntity
  8
raused
370
     0
  6
Continuous
 62
     7
100
AcDbCircle
 10
1.053911
 20
1.97
 30
0.0
 40
0.008433
  0
CIRCLE
  5
7B
100
AcDbEntity
  8
raused
370
     0
  6
Continuous
 62
     7
100
AcDbCircle
 10
0.953911
 20
2.07
 30
0.0
 40
0.008433
  0
CIRCLE
  5
7C
100
AcDbEntity
  8
raused
370
     0
  6
Continuous
 62
     7
100
AcDbCircle
 10
0.953911
 20
1.97
 30
0.0
 40
0.008433
  0
CIRCLE
  5
7D
100
AcDbEntity
  8
hole
370
   120
  6
Continuous
100
AcDbCircle
 10
1.878911
 20
0.6375
 30
0.0
 40
0.098425
1001
ACAD
1000
TCW40_DEV_WIDTH
1002
{
1040
0.047244
1002
}
  0
LWPOLYLINE
  5
7E
100
AcDbEntity
  8
hole
  6
Continuous
100
AcDbPolyline
 90
        4
 70
     1
 43
0.01
 10
0.655
 20
1.70914
 10
1.845
 20
1.70914
 10
1.845
 20
1.15414
 10
0.655
 20
1.15414
  0
LWPOLYLINE
  5
7F
100
AcDbEntity
  8
backside3
  6
Continuous
100
AcDbPolyline
 90
        4
 70
     1
 10
0.462598
 20
0.978883
 10
2.037402
 20
0.978883
 10
2.037402
 20
0.339135
 10
0.462598
 20
0.339135
  0
LINE
  5
80
100
AcDbEntity
  8
backside2
370
     0
  6
Continuous
100
AcDbLine
 10
1.994094
 20
1.884395
 30
0.0
 11
1.994094
 21
0.978883
 31
0.0
  0
LINE
  5
81
100
AcDbEntity
  8
backside2
370
     0
  6
Continuous
100
AcDbLine
 10
1.994094
 20
0.978883
 30
0.0
 11
0.505906
 21
0.978883
 31
0.0
  0
LINE
  5
82
100
AcDbEntity
  8
backside2
370
     0
  6
Continuous
100
AcDbLine
 10
0.505906
 20
0.978883
 30
0.0
 11
0.505906
 21
1.884395
 31
0.0
  0
LINE
  5
83
100
AcDbEntity
  8
backside2
370
     0
  6
Continuous
100
AcDbLine
 10
1.787402
 20
2.152353
 30
0.0
 11
1.787402
 21
1.884394
 31
0.0
  0
LINE
  5
84
100
AcDbEntity
  8
backside2
370
     0
  6
Continuous
100
AcDbLine
 10
0.712598
 20
1.884395
 30
0.0
 11
0.712598
 21
2.155
 31
0.0
  0
LINE
  5
85
100
AcDbEntity
  8
backside2
370
     0
  6
Continuous
100
AcDbLine
 10
0.505906
 20
1.884395
 30
0.0
 11
0.712598
 21
1.884395
 31
0.0
  0
LINE
  5
86
100
AcDbEntity
  8
backside2
370
     0
  6
Continuous
100
AcDbLine
 10
1.787402
 20
1.884394
 30
0.0
 11
1.994094
 21
1.884395
 31
0.0
  0
DIMENSION
  5
96
100
AcDbEntity
  8
0
  6
Continuous
 62
   252
100
AcDbDimension
  2
*D3
 10
3.121925
 20
0.339135
 30
0.0
 11
3.121925
 21
0.659009
 31
0.0
 71
     5
 72
     1
 41
1.0
 42
0.0
  3
STANDARD
100
AcDbAlignedDimension
 13
1.507663
 23
0.978883
 33
0.0
 14
1.503608
 24
0.339135
 34
0.0
 50
90.0
100
AcDbRotatedDimension
1001
ACAD
1000
DSTYLE
1002
{
1070
   176
1070
   252
1070
   177
1070
   252
1070
   178
1070
   252
1070
   147
1040
0.5
1070
   140
1040
0.079861
1002
}
  0
DIMENSION
  5
A7
100
AcDbEntity
  8
0
  6
Continuous
 62
   252
100
AcDbDimension
  2
*D4
 10
-0.155269
 20
0.339135
 30
0.0
 11
0.62827
 21
0.139135
 31
0.0
 71
     5
 72
     1
 41
1.0
 42
0.0
  3
STANDARD
100
AcDbAlignedDimension
 13
0.625
 23
0.66345
 33
0.0
 14
0.635638
 24
0.339135
 34
0.0
 50
90.0
100
AcDbRotatedDimension
1001
ACAD
1000
DSTYLE
1002
{
1070
   176
1070
   252
1070
   177
1070
   252
1070
   178
1070
   252
1070
   147
1040
0.5
1070
   140
1040
0.079861
1002
}
  0
LINE
  5
A8
100
AcDbEntity
  8
0
370
     0
  6
Continuous
100
AcDbLine
 10
0.453374
 20
0.339135
 30
0.0
 11
2.047356
 21
0.339135
 31
0.0
  0
DIMENSION
  5
B8
100
AcDbEntity
  8
0
  6
Continuous
 62
   252
100
AcDbDimension
  2
*D5
 10
1.994094
 20
1.816029
 30
0.0
 11
1.25
 21
1.816029
 31
0.0
 70
     1
 71
     5
 72
     1
 41
1.0
 42
0.0
  3
STANDARD
100
AcDbAlignedDimension
 13
0.505906
 23
1.884395
 33
0.0
 14
1.994094
 24
1.884395
 34
0.0
1001
ACAD
1000
DSTYLE
1002
{
1070
   176
1070
   252
1070
   177
1070
   252
1070
   178
1070
   252
1070
   147
1040
0.5
1070
   140
1040
0.079861
1002
}
  0
DIMENSION
  5
C8
100
AcDbEntity
  8
0
  6
Continuous
 62
   252
100
AcDbDimension
  2
*D6
 10
2.1875
 20
2.674942
 30
0.0
 11
1.25
 21
2.674942
 31
0.0
 71
     5
 72
     1
 41
1.0
 42
0.0
  3
STANDARD
100
AcDbAlignedDimension
 13
0.3125
 23
2.1875
 33
0.0
 14
2.1875
 24
2.1875
 34
0.0
 50
180.0
100
AcDbRotatedDimension
1001
ACAD
1000
DSTYLE
1002
{
1070
   176
1070
   252
1070
   177
1070
   252
1070
   178
1070
   252
1070
   147
1040
0.5
1070
   140
1040
0.079861
1002
}
  0
DIMENSION
  5
D8
100
AcDbEntity
  8
0
  6
Continuous
 62
   252
100
AcDbDimension
  2
*D7
 10
-0.927017
 20
0.3125
 30
0.0
 11
-0.927017
 21
1.25
 31
0.0
 71
     5
 72
     1
 41
1.0
 42
0.0
  3
STANDARD
100
AcDbAlignedDimension
 13
0.3125
 23
2.1875
 33
0.0
 14
0.3125
 24
0.3125
 34
0.0
 50
90.0
100
AcDbRotatedDimension
1001
ACAD
1000
DSTYLE
1002
{
1070
   176
1070
   252
1070
   177
1070
   252
1070
   178
1070
   252
1070
   147
1040
0.5
1070
   140
1040
0.079861
1002
}
  0
LWPOLYLINE
  5
D9
100
AcDbEntity
  8
0
  6
Continuous
 62
     1
100
AcDbPolyline
 90
        5
 70
     0
 43
0.01
 10
0.712598
 20
1.929188
 10
0.712598
 20
2.155813
 10
1.787402
 20
2.155813
 10
1.787402
 20
1.929187
 10
0.712598
 20
1.929188
  0
LWPOLYLINE
  5
DA
100
AcDbEntity
  8
0
  6
Continuous
 62
     1
100
AcDbPolyline
 90
        4
 70
     1
 10
1.787402
 20
1.884394
 10
0.712598
 20
1.884395
 10
0.712598
 20
2.155
 10
1.787402
 20
2.155
  0
DIMENSION
  5
EA
100
AcDbEntity
  8
0
  6
Continuous
 62
     7
100
AcDbDimension
  2
*D8
 10
1.845
 20
1.597221
 30
0.0
 11
1.25
 21
1.597221
 31
0.0
 70
     1
 71
     5
 72
     1
 41
1.0
 42
0.0
  3
STANDARD
100
AcDbAlignedDimension
 13
0.655
 23
1.70914
 33
0.0
 14
1.845
 24
1.70914
 34
0.0
1001
ACAD
1000
DSTYLE
1002
{
1070
   147
1040
0.5
1070
   140
1040
0.079861
1002
}
  0
DIMENSION
  5
FA
100
AcDbEntity
  8
0
  6
Continuous
 62
     7
100
AcDbDimension
  2
*D9
 10
0.829137
 20
1.15414
 30
0.0
 11
0.829137
 21
1.43164
 31
0.0
 71
     5
 72
     1
 41
1.0
 42
0.0
  3
STANDARD
100
AcDbAlignedDimension
 13
0.655
 23
1.70914
 33
0.0
 14
0.655
 24
1.15414
 34
0.0
 50
-90.0
100
AcDbRotatedDimension
1001
ACAD
1000
DSTYLE
1002
{
1070
   147
1040
0.5
1070
   140
1040
0.079861
1002
}
  0
LINE
  5
FB
102
{ACAD_REACTORS
330
108
102
}
100
AcDbEntity
  8
0
370
   120
  6
Continuous
 62
     1
100
AcDbLine
 10
0.15
 20
0.425
 30
0.0
 11
0.267344
 21
0.425
 31
0.0
1001
ACAD
1000
TCW40_DEV_WIDTH
1002
{
1040
0.047244
1002
}
  0
LINE
  5
FC
102
{ACAD_REACTORS
330
108
102
}
100
AcDbEntity
  8
0
370
   120
  6
Continuous
 62
     1
100
AcDbLine
 10
0.267344
 20
0.425
 30
0.0
 11
0.45
 21
0.425
 31
0.0
1001
ACAD
1000
TCW40_DEV_WIDTH
1002
{
1040
0.047244
1002
}
  0
LINE
  5
FD
102
{ACAD_REACTORS
330
108
102
}
100
AcDbEntity
  8
0
370
   120
  6
Continuous
 62
     1
100
AcDbLine
 10
0.45
 20
0.425
 30
0.0
 11
0.45
 21
0.15
 31
0.0
1001
ACAD
1000
TCW40_DEV_WIDTH
1002
{
1040
0.047244
1002
}
  0
LINE
  5
FE
102
{ACAD_REACTORS
330
108
102
}
100
AcDbEntity
  8
0
370
   120
  6
Continuous
 62
     1
100
AcDbLine
 10
0.45
 20
0.15
 30
0.0
 11
2.05
 21
0.15
 31
0.0
1001
ACAD
1000
TCW40_DEV_WIDTH
1002
{
1040
0.047244
1002
}
  0
LINE
  5
FF
102
{ACAD_REACTORS
330
108
102
}
100
AcDbEntity
  8
0
370
   120
  6
Continuous
 62
     1
100
AcDbLine
 10
2.05
 20
0.15
 30
0.0
 11
2.05
 21
0.425
 31
0.0
1001
ACAD
1000
TCW40_DEV_WIDTH
1002
{
1040
0.047244
1002
}
  0
LINE
  5
100
102
{ACAD_REACTORS
330
108
102
}
100
AcDbEntity
  8
0
370
   120
  6
Continuous
 62
     1
100
AcDbLine
 10
2.05
 20
0.425
 30
0.0
 11
2.35
 21
0.425
 31
0.0
1001
ACAD
1000
TCW40_DEV_WIDTH
1002
{
1040
0.047244
1002
}
  0
LINE
  5
101
102
{ACAD_REACTORS
330
108
102
}
100
AcDbEntity
  8
0
370
   120
  6
Continuous
 62
     1
100
AcDbLine
 10
2.35
 20
0.425
 30
0.0
 11
2.35
 21
1.925
 31
0.0
1001
ACAD
1000
TCW40_DEV_WIDTH
1002
{
1040
0.047244
1002
}
  0
LINE
  5
102
102
{ACAD_REACTORS
330
108
102
}
100
AcDbEntity
  8
0
370
   120
  6
Continuous
 62
     1
100
AcDbLine
 10
2.35
 20
1.925
 30
0.0
 11
2.037402
 21
1.925
 31
0.0
1001
ACAD
1000
TCW40_DEV_WIDTH
1002
{
1040
0.047244
1002
}
  0
LINE
  5
103
102
{ACAD_REACTORS
330
108
102
}
100
AcDbEntity
  8
0
370
   120
  6
Continuous
 62
     1
100
AcDbLine
 10
2.037402
 20
2.35
 30
0.0
 11
0.462598
 21
2.35
 31
0.0
1001
ACAD
1000
TCW40_DEV_WIDTH
1002
{
1040
0.047244
1002
}
  0
LINE
  5
104
102
{ACAD_REACTORS
330
108
102
}
100
AcDbEntity
  8
0
370
   120
  6
Continuous
 62
     1
100
AcDbLine
 10
0.462598
 20
1.925
 30
0.0
 11
0.15
 21
1.925
 31
0.0
1001
ACAD
1000
TCW40_DEV_WIDTH
1002
{
1040
0.047244
1002
}
  0
LINE
  5
105
102
{ACAD_REACTORS
330
108
102
}
100
AcDbEntity
  8
0
370
   120
  6
Continuous
 62
     1
100
AcDbLine
 10
0.15
 20
1.925
 30
0.0
 11
0.15
 21
0.425
 31
0.0
1001
ACAD
1000
TCW40_DEV_WIDTH
1002
{
1040
0.047244
1002
}
  0
LINE
  5
106
102
{ACAD_REACTORS
330
108
102
}
100
AcDbEntity
  8
0
370
   120
 62
     1
100
AcDbLine
 10
0.462598
 20
1.925
 30
0.0
 11
0.462598
 21
2.35
 31
0.0
1001
ACAD
1000
TCW40_DEV_WIDTH
1002
{
1040
0.047244
1002
}
  0
LINE
  5
107
102
{ACAD_REACTORS
330
108
102
}
100
AcDbEntity
  8
0
370
   120
 62
     1
100
AcDbLine
 10
2.037402
 20
1.925
 30
0.0
 11
2.037402
 21
2.35
 31
0.0
1001
ACAD
1000
TCW40_DEV_WIDTH
1002
{
1040
0.047244
1002
}
  0
DIMENSION
  5
118
100
AcDbEntity
  8
0
  6
Continuous
 62
     7
100
AcDbDimension
  2
*D10
 10
1.958661
 20
2.552225
 30
0.0
 11
1.25
 21
2.552225
 31
0.0
 70
     1
 71
     5
 72
     1
 41
1.0
 42
0.0
  1
<>
  3
STANDARD
100
AcDbAlignedDimension
 13
0.541339
 23
2.032033
 33
0.0
 14
1.958661
 24
2.032033
 34
0.0
1001
ACAD
1000
DSTYLE
1002
{
1070
   147
1040
0.5
1070
   140
1040
0.079861
1002
}
  0
DIMENSION
  5
128
100
AcDbEntity
  8
0
  6
Continuous
 62
     7
100
AcDbDimension
  2
*D11
 10
1.958661
 20
0.853559
 30
0.0
 11
1.25
 21
0.853559
 31
0.0
 71
     5
 72
     1
 41
1.0
 42
0.0
  1
<>
  3
STANDARD
100
AcDbAlignedDimension
 13
0.541339
 23
0.831246
 33
0.0
 14
1.958661
 24
0.831246
 34
0.0
 50
-180.0
100
AcDbRotatedDimension
1001
ACAD
1000
DSTYLE
1002
{
1070
   147
1040
0.5
1070
   140
1040
0.079861
1002
}
  0
DIMENSION
  5
134
100
AcDbEntity
  8
0
  6
Continuous
 62
     7
100
AcDbDimension
  2
*D12
 10
1.25
 20
1.25
 30
0.0
 11
-1.597967
 21
2.457739
 31
0.0
 70
     4
 71
     5
 72
     1
 41
1.0
 42
0.0
  1
<>
  3
STANDARD
100
AcDbRadialDimension
 15
0.288211
 25
1.823901
 35
0.0
 40
1.236973
1001
ACAD
1000
DSTYLE
1002
{
1070
   147
1040
0.5
1070
   140
1040
0.079861
1002
}
  0
LWPOLYLINE
  5
135
100
AcDbEntity
  8
0
  6
Continuous
 62
     7
100
AcDbPolyline
 90
        4
 70
     1
 10
0.1
 20
0.1
 10
2.4
 20
0.1
 10
2.4
 20
2.4
 10
0.1
 20
2.4
  0
DIMENSION
  5
145
100
AcDbEntity
  8
0
  6
Continuous
 62
     7
100
AcDbDimension
  2
*D13
 10
0.1
 20
2.948447
 30
0.0
 11
1.25
 21
2.948447
 31
0.0
 71
     5
 72
     1
 41
1.0
 42
0.0
  1
<>
  3
STANDARD
100
AcDbAlignedDimension
 13
2.4
 23
2.4
 33
0.0
 14
0.1
 24
2.4
 34
0.0
100
AcDbRotatedDimension
1001
ACAD
1000
DSTYLE
1002
{
1070
   147
1040
0.2
1070
   140
1040
0.079861
1002
}
  0
DIMENSION
  5
155
100
AcDbEntity
  8
0
  6
Continuous
 62
     7
100
AcDbDimension
  2
*D14
 10
-0.481754
 20
0.1
 30
0.0
 11
-0.481754
 21
1.25
 31
0.0
 71
     5
 72
     1
 41
1.0
 42
0.0
  1
<>
  3
STANDARD
100
AcDbAlignedDimension
 13
0.1
 23
2.4
 33
0.0
 14
0.1
 24
0.1
 34
0.0
 50
-90.0
100
AcDbRotatedDimension
1001
ACAD
1000
DSTYLE
1002
{
1070
   147
1040
0.2
1070
   140
1040
0.079861
1002
}
  0
LWPOLYLINE
  5
156
100
AcDbEntity
  8
0
  6
Continuous
 62
     1
100
AcDbPolyline
 90
        4
 70
     1
 43
0.05
 10
0.05
 20
0.05
 10
2.45
 20
0.05
 10
2.45
 20
2.45
 10
0.05
 20
2.45
  0
TEXT
  5
157
100
AcDbEntity
  8
0
  6
Continuous
 62
     7
100
AcDbText
 10
2.722928
 20
-0.180732
 30
0.0
 40
0.123944
  1
2.3 x2.3 is the exact dimmesnion of the PCB 
 11
2.722928
 21
-0.056788
 31
0.0
100
AcDbText
 73
     3
1001
TCAD
1000
TCW40_TEXT
1002
{
1000
Arial
1070
     0
1070
   257
1002
}
  0
DIMENSION
  5
167
100
AcDbEntity
  8
0
  6
Continuous
 62
     7
100
AcDbDimension
  2
*D15
 10
2.45
 20
3.143912
 30
0.0
 11
1.25
 21
3.143912
 31
0.0
 70
     1
 71
     5
 72
     1
 41
1.0
 42
0.0
  1
<>
  3
STANDARD
100
AcDbAlignedDimension
 13
0.05
 23
2.45
 33
0.0
 14
2.45
 24
2.45
 34
0.0
1001
ACAD
1000
DSTYLE
1002
{
1070
   147
1040
0.2
1070
   140
1040
0.079861
1002
}
  0
DIMENSION
  5
177
100
AcDbEntity
  8
0
  6
Continuous
 62
     7
100
AcDbDimension
  2
*D16
 10
3.3839
 20
0.05
 30
0.0
 11
3.3839
 21
1.25
 31
0.0
 71
     5
 72
     1
 41
1.0
 42
0.0
  1
<>
  3
STANDARD
100
AcDbAlignedDimension
 13
2.45
 23
2.45
 33
0.0
 14
2.45
 24
0.05
 34
0.0
 50
-90.0
100
AcDbRotatedDimension
1001
ACAD
1000
DSTYLE
1002
{
1070
   147
1040
0.2
1070
   140
1040
0.079861
1002
}
  0
DIMENSION
  5
188
100
AcDbEntity
  8
0
  6
Continuous
 62
     7
100
AcDbDimension
  2
*D17
 10
2.57376
 20
0.3125
 30
0.0
 11
3.057299
 21
0.1125
 31
0.0
 71
     5
 72
     1
 41
1.0
 42
0.0
  1
<>
  3
STANDARD
100
AcDbAlignedDimension
 13
1.878911
 23
0.6375
 33
0.0
 14
2.1875
 24
0.3125
 34
0.0
 50
90.0
100
AcDbRotatedDimension
1001
ACAD
1000
DSTYLE
1002
{
1070
   147
1040
0.2
1070
   140
1040
0.079861
1002
}
  0
DIMENSION
  5
199
100
AcDbEntity
  8
0
  6
Continuous
 62
     7
100
AcDbDimension
  2
*D18
 10
0.936612
 20
0.3125
 30
0.0
 11
1.42015
 21
0.1125
 31
0.0
 71
     5
 72
     1
 41
1.0
 42
0.0
  1
<>
  3
STANDARD
100
AcDbAlignedDimension
 13
1.253911
 23
0.65
 33
0.0
 14
2.1875
 24
0.3125
 34
0.0
 50
-90.0
100
AcDbRotatedDimension
1001
ACAD
1000
DSTYLE
1002
{
1070
   147
1040
0.2
1070
   140
1040
0.079861
1002
}
  0
CIRCLE
  5
19A
100
AcDbEntity
  8
0
370
   120
  6
Continuous
 62
     3
100
AcDbCircle
 10
1.253911
 20
0.65
 30
0.0
 40
0.145
1001
ACAD
1000
TCW40_DEV_WIDTH
1002
{
1040
0.05
1002
}
  0
DIMENSION
  5
1A4
100
AcDbEntity
  8
0
  6
Continuous
 62
     7
100
AcDbDimension
  2
*D19
 10
0.628911
 20
0.6375
 30
0.0
 11
0.936865
 21
0.433874
 31
0.0
 70
     4
 71
     5
 72
     1
 41
1.0
 42
0.0
  1
<>
  3
STANDARD
100
AcDbRadialDimension
 15
0.617307
 25
0.735239
 35
0.0
 40
-0.303481
1001
ACAD
1000
DSTYLE
1002
{
1002
}
  0
DIMENSION
  5
1AE
100
AcDbEntity
  8
0
  6
Continuous
 62
     7
100
AcDbDimension
  2
*D20
 10
1.253911
 20
0.65
 30
0.0
 11
1.633397
 21
0.467609
 31
0.0
 70
     4
 71
     5
 72
     1
 41
1.0
 42
0.0
  1
<>
  3
STANDARD
100
AcDbRadialDimension
 15
1.186536
 25
0.778396
 35
0.0
 40
-0.350977
1001
ACAD
1000
DSTYLE
1002
{
1002
}
  0
LWPOLYLINE
  5
1AF
100
AcDbEntity
  8
0
  6
Continuous
 62
     1
100
AcDbPolyline
 90
        4
 70
     1
 43
0.05
 10
0.453911
 20
0.95
 10
2.053911
 20
0.95
 10
2.053911
 20
1.925
 10
0.453911
 20
1.925
  0
LEADER
  5
1B0
100
AcDbEntity
  8
0
370
     0
  6
Continuous
 62
     7
100
AcDbLeader
  3
STANDARD
 73
     3
 74
     0
 75
     0
 40
0.0
 76
     4
 10
2.071453
 20
1.960391
 30
0.0
 10
2.635029
 20
2.123113
 30
0.0
 10
2.821565
 20
2.119144
 30
0.0
 10
2.921565
 20
2.119144
 30
0.0
 77
     7
211
0.0001
221
0.0
231
0.0
1001
ACAD
1000
DSTYLE
1002
{
1070
   341
1005
38
1002
}
  0
TEXT
  5
1B1
100
AcDbEntity
  8
0
  6
Continuous
 62
     7
100
AcDbText
 10
3.0081
 20
1.978742
 30
0.0
 40
0.123944
  1
make these 4 corners round
 11
3.0081
 21
2.102686
 31
0.0
100
AcDbText
 73
     3
1001
TCAD
1000
TCW40_TEXT
1002
{
1000
Arial
1070
     0
1070
   257
1002
}
  0
DIMENSION
  5
1C1
100
AcDbEntity
  8
0
  6
Continuous
 62
     7
100
AcDbDimension
  2
*D21
 10
1.787402
 20
2.24714
 30
0.0
 11
1.2525
 21
2.24714
 31
0.0
 71
     5
 72
     1
 41
1.0
 42
0.0
  1
<>
  3
STANDARD
100
AcDbAlignedDimension
 13
0.717598
 23
2.150813
 33
0.0
 14
1.787402
 24
2.155813
 34
0.0
100
AcDbRotatedDimension
1001
ACAD
1000
DSTYLE
1002
{
1002
}
  0
DIMENSION
  5
1D1
100
AcDbEntity
  8
0
  6
Continuous
 62
     7
100
AcDbDimension
  2
*D22
 10
2.053911
 20
1.079307
 30
0.0
 11
1.253911
 21
1.079307
 31
0.0
 70
     1
 71
     5
 72
     1
 41
1.0
 42
0.0
  1
<>
  3
STANDARD
100
AcDbAlignedDimension
 13
0.453911
 23
0.95
 33
0.0
 14
2.053911
 24
0.95
 34
0.0
1001
ACAD
1000
DSTYLE
1002
{
1002
}
  0
DIMENSION
  5
1E1
100
AcDbEntity
  8
0
  6
Continuous
 62
     7
100
AcDbDimension
  2
*D23
 10
2.170674
 20
1.925
 30
0.0
 11
2.170674
 21
1.4375
 31
0.0
 71
     5
 72
     1
 41
1.0
 42
0.0
  1
<>
  3
STANDARD
100
AcDbAlignedDimension
 13
2.053911
 23
0.95
 33
0.0
 14
2.053911
 24
1.925
 34
0.0
 50
-90.0
100
AcDbRotatedDimension
1001
ACAD
1000
DSTYLE
1002
{
1002
}
  0
DIMENSION
  5
1F1
100
AcDbEntity
  8
0
  6
Continuous
 62
     7
100
AcDbDimension
  2
*D24
 10
-0.305885
 20
0.95
 30
0.0
 11
-0.305885
 21
0.63125
 31
0.0
 71
     5
 72
     1
 41
1.0
 42
0.0
  1
<>
  3
STANDARD
100
AcDbAlignedDimension
 13
0.3125
 23
0.3125
 33
0.0
 14
0.453911
 24
0.95
 34
0.0
 50
90.0
100
AcDbRotatedDimension
1001
ACAD
1000
DSTYLE
1002
{
1002
}
  0
LWPOLYLINE
  5
1F2
100
AcDbEntity
  8
0
  6
Continuous
 62
     1
100
AcDbPolyline
 90
        6
 70
     1
 43
0.05
 10
2.053911
 20
0.95
 10
0.453911
 20
0.95
 10
0.453911
 20
0.528382
 10
0.628911
 20
0.339135
 10
1.878911
 20
0.339135
 10
2.053911
 20
0.528382
  0
DIMENSION
  5
1FE
100
AcDbEntity
  8
0
  6
Continuous
 62
     7
100
AcDbDimension
  2
*D25
 10
2.1875
 20
2.1875
 30
0.0
 11
2.781385
 21
2.315106
 31
0.0
 70
     4
 71
     5
 72
     1
 41
1.0
 42
0.0
  1
<>
  3
STANDARD
100
AcDbRadialDimension
 15
2.242986
 25
2.210332
 35
0.0
 40
0.275336
1001
ACAD
1000
DSTYLE
1002
{
1002
}
  0
DIMENSION
  5
20A
100
AcDbEntity
  8
0
  6
Continuous
 62
     7
100
AcDbDimension
  2
*D26
 10
1.958661
 20
2.032033
 30
0.0
 11
2.474138
 21
2.092143
 31
0.0
 70
     4
 71
     5
 72
     1
 41
1.0
 42
0.0
  1
<>
  3
STANDARD
100
AcDbRadialDimension
 15
1.996769
 25
2.041919
 35
0.0
 40
0.2
1001
ACAD
1000
DSTYLE
1002
{
1002
}
  0
CIRCLE
  5
20B
100
AcDbEntity
  8
0
370
     0
  6
Continuous
 62
     7
100
AcDbCircle
 10
0.3125
 20
0.3125
 30
0.0
 40
0.137054
  0
CIRCLE
  5
20C
100
AcDbEntity
  8
0
370
     0
  6
Continuous
 62
     7
100
AcDbCircle
 10
0.3125
 20
2.1875
 30
0.0
 40
0.132843
  0
ENDSEC
  0
SECTION
  2
OBJECTS
  0
DICTIONARY
  5
19
100
AcDbDictionary
280
     0
281
     1
  3
ACAD_GROUP
350
1A
  3
ACAD_MLINESTYLE
350
1B
  3
ACAD_LAYOUT
350
1E
  3
ACAD_PLOTSETTINGS
350
22
  3
ACAD_PLOTSTYLENAME
350
1F
  0
DICTIONARY
  5
1A
102
{ACAD_REACTORS
330
19
102
}
100
AcDbDictionary
280
     0
281
     1
  3

350
108
  0
DICTIONARY
  5
1B
102
{ACAD_REACTORS
330
19
102
}
100
AcDbDictionary
280
     0
281
     1
  3
Standard
350
1C
  0
MLINESTYLE
  5
1C
100
AcDbMlineStyle
  2
STANDARD
 70
     0
  3

 62
   256
 51
90.0
 52
90.0
 71
     3
 49
5.0
 62
     7
  6
ByLayer
 49
0.0
 62
     7
  6
ByLayer
 49
-5.0
 62
     7
  6
ByLayer
  0
ACDBDICTIONARYWDFLT
  5
1F
102
{ACAD_REACTORS
330
19
102
}
100
AcDbDictionary
281
     1
  3
Normal
350
1D
100
AcDbDictionaryWithDefault
340
1D
  0
ACDBPLACEHOLDER
  5
1D
102
{ACAD_REACTORS
330
1F
102
}
  0
LAYOUT
  5
21
102
{ACAD_REACTORS
330
1E
102
}
100
AcDbPlotSettings
  1

  2

  4

  6

 40
0.0
 41
0.0
 42
0.0
 43
0.0
 44
0.0
 45
0.0
 46
0.0
 47
0.0
 48
0.0
 49
0.0
140
0.0
141
0.0
142
1.0
143
1.0
 70
     0
 72
     0
 73
     0
 74
     0
  7

 75
     0
147
1.0
148
0.0
149
0.0
100
AcDbLayout
  1
Layout1
 70
     0
 71
     0
 10
0.0
 20
0.0
 11
0.0
 21
0.0
 12
0.0
 22
0.0
 32
0.0
 14
0.0
 24
0.0
 34
0.0
 15
0.0
 25
0.0
 35
0.0
146
0.0
 13
0.0
 23
0.0
 33
0.0
 16
0.0
 26
0.0
 36
0.0
 17
0.0
 27
0.0
 37
0.0
 76
     0
330
B
331
0
345
0
346
0
  0
DICTIONARY
  5
1E
102
{ACAD_REACTORS
330
19
102
}
100
AcDbDictionary
280
     0
281
     1
  3
Model
350
20D
  3
Paper 1
350
20E
  0
DICTIONARY
  5
22
102
{ACAD_REACTORS
330
19
102
}
100
AcDbDictionary
280
     0
281
     1
  0
GROUP
  5
108
102
{ACAD_REACTORS
330
1A
102
}
100
AcDbGroup
300

 70
     1
 71
     1
340
FB
340
FC
340
FD
340
FE
340
FF
340
100
340
101
340
102
340
103
340
104
340
105
340
106
340
107
  0
LAYOUT
  5
20D
100
AcDbPlotSettings
  1

  2

  4

  6

 40
0.0
 41
0.0
 42
0.0
 43
0.0
 44
0.0
 45
0.0
 46
0.0
 47
0.0
 48
0.0
 49
0.0
140
0.0
141
0.0
142
1.0
143
1.0
 70
     0
 72
     0
 73
     0
 74
     0
  7

 75
     0
147
1.0
148
0.0
149
0.0
100
AcDbLayout
  1
Model
 70
     0
 71
     0
 10
0.0
 20
0.0
 11
0.0
 21
0.0
 12
0.0
 22
0.0
 32
0.0
 14
0.0
 24
0.0
 34
0.0
 15
0.0
 25
0.0
 35
0.0
146
0.0
 13
0.0
 23
0.0
 33
0.0
 16
0.0
 26
0.0
 36
0.0
 17
0.0
 27
0.0
 37
0.0
 76
     0
330
A
331
0
345
0
346
0
  0
LAYOUT
  5
20E
100
AcDbPlotSettings
  1

  2

  4

  6

 40
7.0
 41
7.0
 42
7.0
 43
7.0
 44
7543.8
 45
5334.0
 46
-7.0
 47
-7.0
 48
0.0
 49
0.0
140
0.0
141
0.0
142
1.0
143
25.4
 70
     0
 72
     0
 73
     0
 74
     0
  7

 75
     0
147
1.0
148
0.0
149
0.0
100
AcDbLayout
  1
Paper 1
 70
     1
 71
     1
 10
0.0
 20
0.0
 11
7543.8
 21
5334.0
 12
0.0
 22
0.0
 32
0.0
 14
0.0
 24
0.0
 34
0.0
 15
0.0
 25
0.0
 35
0.0
146
0.0
 13
0.0
 23
0.0
 33
0.0
 16
0.0
 26
0.0
 36
0.0
 17
0.0
 27
0.0
 37
0.0
 76
     0
330
B
331
0
345
0
346
0
  0
ENDSEC
  0
EOF
